<?xml version="1.0" standalone="no"?>
<!DOCTYPE svg PUBLIC "-//W3C//DTD SVG 20010904//EN"
 "http://www.w3.org/TR/2001/REC-SVG-20010904/DTD/svg10.dtd">
<svg version="1.0" xmlns="http://www.w3.org/2000/svg"
 width="660.000000pt" height="669.000000pt" viewBox="0 0 660.000000 669.000000"
 preserveAspectRatio="xMidYMid meet">

<g transform="translate(0.000000,669.000000) scale(0.100000,-0.100000)"
fill="#000000" stroke="none">
<path d="M3075 6379 c-712 -58 -1368 -371 -1876 -895 -166 -172 -360 -429
-437 -579 l-20 -41 24 1 c13 1 27 5 31 9 5 4 23 14 41 22 18 7 31 18 28 23 -8
12 21 34 34 26 6 -4 10 -3 9 2 -7 39 26 46 43 8 12 -26 24 -32 30 -16 2 5 15
13 30 16 27 7 28 6 28 -33 0 -22 3 -42 8 -45 4 -2 1 -2 -6 0 -16 4 -12 -29 4
-34 7 -2 19 3 27 12 22 21 30 19 15 -5 -14 -22 -3 -39 14 -22 19 19 29 14 22
-13 -4 -15 -2 -25 5 -25 16 0 13 -27 -4 -34 -39 -14 11 -66 64 -66 30 0 42 -6
55 -25 14 -21 14 -25 2 -25 -8 0 -21 7 -30 15 -17 17 -36 20 -36 5 0 -5 5 -10
10 -10 6 0 10 -5 10 -10 0 -7 -7 -7 -20 0 -11 6 -18 15 -15 21 4 5 2 9 -2 9
-5 0 -14 -9 -21 -20 -10 -17 -10 -21 3 -26 8 -4 15 -11 15 -16 0 -7 -5 -6 -14
1 -10 9 -16 8 -26 -4 -7 -9 -17 -12 -24 -7 -6 5 -23 9 -38 10 -15 1 -31 3 -35
4 -9 3 -13 -5 -13 -28 0 -14 2 -15 17 -3 15 13 16 11 10 -13 -4 -15 -3 -30 3
-33 5 -3 10 -1 10 6 0 7 2 10 5 7 3 -3 3 -13 -1 -22 -6 -15 -8 -16 -31 -1 -29
19 -45 11 -19 -8 16 -12 17 -17 6 -36 -11 -22 -11 -23 20 -16 25 6 31 4 27 -6
-2 -8 -10 -13 -16 -11 -16 3 -13 -15 4 -22 8 -3 12 -12 9 -21 -6 -14 -8 -14
-25 1 -25 22 -37 10 -16 -14 10 -10 17 -22 17 -27 0 -4 8 -13 17 -20 15 -11
16 -15 3 -31 -9 -11 -10 -15 -2 -10 7 4 12 1 12 -8 0 -21 -16 -20 -32 0 -42
53 -91 96 -97 86 -5 -8 -12 -5 -24 8 -21 24 -13 50 14 43 12 -4 19 0 19 10 0
8 -11 18 -25 21 -14 4 -25 13 -25 21 0 20 -17 19 -37 -1 -13 -12 -13 -18 -4
-24 9 -5 7 -9 -8 -13 -15 -3 -21 1 -24 17 -4 19 -4 20 -6 1 -1 -11 -16 -29
-34 -40 -38 -24 -48 -55 -18 -55 12 0 21 6 21 15 0 9 9 25 20 37 11 12 20 17
20 10 0 -6 7 -9 15 -6 22 9 18 -19 -5 -34 -26 -16 -26 -36 0 -29 14 3 25 -1
33 -13 6 -11 20 -18 32 -16 11 2 15 1 9 -1 -7 -2 -12 -20 -11 -39 1 -33 1 -34
14 -12 l13 23 6 -22 c3 -13 11 -23 16 -23 6 0 8 7 4 15 -3 8 -1 15 3 15 13 0
20 -25 14 -48 -3 -14 2 -24 16 -31 27 -15 27 -31 1 -24 -22 6 -28 -12 -7 -20
9 -3 12 -16 9 -38 -4 -30 -6 -31 -18 -14 -8 10 -14 15 -15 9 0 -5 -4 0 -8 11
-5 11 -8 32 -7 48 4 55 -25 19 -32 -40 -3 -21 -19 -15 -27 10 -4 14 -8 17 -12
9 -3 -7 1 -27 8 -43 10 -26 10 -32 -2 -39 -7 -5 -10 -12 -6 -16 3 -4 13 -1 22
6 12 10 16 9 21 -3 3 -9 11 -14 18 -11 15 6 42 -23 32 -33 -4 -4 -11 -1 -15 6
-7 11 -10 11 -17 0 -6 -10 -11 -5 -20 16 l-12 30 -7 -28 c-4 -15 -15 -32 -24
-37 -9 -6 -11 -10 -3 -10 6 0 12 -7 12 -15 0 -18 30 -20 30 -2 0 6 6 3 12 -8
12 -20 12 -25 3 -25 -15 -1 -54 -50 -50 -62 4 -10 -1 -17 -14 -21 -18 -4 -19
-2 -11 13 6 11 6 21 1 24 -4 3 -14 -7 -20 -22 -9 -19 -10 -27 -1 -30 7 -3 4
-9 -7 -17 -15 -11 -15 -15 -4 -29 11 -14 11 -16 -3 -16 -9 0 -16 -4 -16 -9 0
-16 47 -18 109 -5 71 14 100 10 95 -14 -6 -23 13 -51 24 -36 4 6 16 9 27 6 11
-2 43 -4 72 -3 30 1 54 -3 59 -10 5 -8 -1 -10 -20 -7 -14 3 -26 2 -26 -2 0 -8
-32 -21 -60 -25 -9 -1 -37 -5 -63 -9 -28 -4 -47 -3 -47 2 0 13 -35 21 -50 12
-9 -6 -8 -10 5 -17 12 -7 14 -13 6 -17 -6 -4 -11 -4 -11 0 0 4 -14 -5 -32 -22
-18 -17 -29 -22 -25 -13 4 12 -1 18 -19 22 -13 2 -24 1 -24 -2 0 -4 -12 -7
-27 -7 -38 -1 -99 -29 -84 -39 14 -8 -4 -35 -24 -35 -7 0 -15 -9 -18 -20 -3
-13 0 -20 10 -20 10 0 13 -6 9 -16 -4 -10 -1 -14 6 -11 8 2 12 18 10 38 -2 27
0 31 10 21 17 -17 28 -15 21 5 -4 10 -2 14 5 9 6 -3 13 -2 17 4 3 5 11 10 16
10 6 0 -3 -17 -20 -37 -16 -20 -28 -41 -24 -46 3 -4 27 -6 54 -2 41 6 49 4 49
-9 0 -9 -8 -16 -18 -16 -10 0 -21 -3 -25 -6 -11 -11 5 -34 24 -34 10 0 19 -4
19 -10 0 -14 -23 -13 -38 2 -9 9 -18 9 -38 -1 -28 -12 -56 -1 -51 22 1 6 -8
12 -21 13 -17 1 -20 -2 -13 -9 23 -23 10 -27 -19 -7 -32 23 -62 16 -74 -16 -6
-15 -8 -15 -19 -2 -6 9 -22 19 -34 22 -18 6 -21 4 -16 -16 5 -19 3 -21 -8 -10
-7 6 -21 12 -31 12 -9 0 -26 9 -37 21 -11 12 -21 16 -25 10 -4 -5 -13 -8 -21
-5 -18 7 -31 -21 -34 -71 -4 -83 18 -328 31 -336 18 -11 31 1 17 17 -9 11 -6
19 15 39 24 22 24 25 10 40 -9 9 -13 19 -10 23 4 3 11 0 17 -8 8 -13 12 -12
24 4 20 26 19 37 -4 43 -24 6 -22 63 3 89 12 11 15 25 11 45 -5 22 -3 29 8 29
10 0 13 -7 10 -20 -3 -11 0 -26 6 -34 8 -10 6 -17 -9 -31 -14 -12 -17 -22 -10
-30 5 -6 7 -14 5 -17 -3 -3 8 -8 26 -12 27 -5 31 -9 27 -31 -5 -26 4 -37 35
-42 14 -2 17 1 12 17 -4 11 -2 20 4 20 6 0 11 -7 11 -16 0 -11 5 -14 16 -10 9
3 18 6 20 6 2 0 4 9 4 20 0 11 6 20 13 20 10 0 12 -17 10 -67 -2 -37 -5 -68
-7 -70 -1 -2 -15 8 -30 22 -33 30 -50 32 -41 5 3 -11 2 -20 -4 -20 -5 0 -11
10 -13 22 -3 24 -28 37 -28 15 0 -9 -6 -17 -12 -20 -20 -7 5 -42 30 -42 21 -1
62 -36 62 -53 0 -6 11 -12 24 -14 20 -4 28 1 39 25 14 27 16 28 26 11 10 -18
11 -18 8 1 -1 11 3 21 8 23 6 1 11 -9 13 -23 3 -22 5 -23 18 -10 9 9 25 13 38
9 12 -3 29 -6 37 -7 23 -4 40 -18 34 -28 -8 -13 9 -11 22 2 13 13 33 4 33 -15
0 -8 -6 -19 -14 -25 -10 -9 -15 -8 -19 3 -4 9 -14 12 -26 9 -26 -7 -16 -33 13
-33 19 -1 19 -2 3 -11 -25 -14 -12 -29 26 -29 31 1 31 1 12 16 -19 14 -19 14
5 11 16 -3 24 -10 22 -20 -1 -8 2 -18 8 -22 19 -12 10 -35 -13 -35 -21 0 -73
-29 -53 -30 4 0 1 -11 -8 -25 -16 -24 -16 -25 10 -25 22 0 25 -2 14 -15 -7 -8
-8 -15 -2 -15 5 0 12 -9 15 -19 4 -16 12 -19 36 -16 28 4 30 2 18 -16 -6 -10
-17 -19 -23 -19 -6 0 -17 -7 -25 -16 -11 -13 -7 -13 29 2 36 14 45 14 59 3 13
-11 17 -11 20 -1 3 6 9 10 14 6 18 -10 9 -24 -16 -24 -15 0 -25 -6 -25 -14 0
-23 -14 -26 -44 -11 -24 13 -29 12 -46 -3 -11 -9 -20 -25 -20 -35 0 -10 -10
-27 -22 -36 -23 -20 -19 -57 6 -48 8 3 17 3 21 -1 7 -7 12 -8 39 -11 8 0 16
-8 19 -15 4 -9 1 -13 -6 -11 -49 14 -67 15 -67 0 0 -21 -7 -19 -38 10 -15 14
-29 25 -32 25 -3 0 -15 -16 -28 -35 -12 -19 -29 -35 -37 -35 -8 0 -15 -5 -15
-11 0 -7 9 -9 24 -5 29 7 59 -20 36 -34 -23 -14 7 -43 30 -30 25 14 25 14 28
-17 1 -14 -1 -23 -5 -20 -3 4 -12 2 -18 -3 -9 -8 -14 -6 -19 5 -8 21 -23 19
-29 -4 -3 -13 0 -18 8 -15 6 3 18 -2 25 -11 16 -20 37 -19 48 2 8 13 10 11 10
-10 0 -19 -4 -24 -16 -19 -12 4 -14 1 -9 -12 4 -10 10 -29 13 -42 3 -13 13
-24 21 -24 13 0 13 -3 3 -15 -19 -22 3 -44 25 -25 9 8 28 10 49 7 27 -4 36 -2
39 11 4 13 5 12 6 -4 1 -19 6 -21 49 -17 42 4 45 3 29 -10 -23 -19 -6 -34 52
-43 l42 -7 -28 -29 c-29 -31 -69 -53 -90 -49 -7 1 -13 -5 -13 -14 0 -9 5 -13
10 -10 14 9 13 -8 -2 -23 -9 -9 -8 -12 8 -13 10 -1 25 -1 31 0 18 3 53 -18 53
-30 0 -6 -8 -27 -17 -46 -15 -32 -15 -36 -1 -44 9 -5 14 -17 11 -27 -6 -26 17
-42 45 -31 12 5 22 13 22 19 0 5 5 10 10 10 6 0 10 -7 10 -17 0 -15 2 -14 20
2 19 17 20 17 31 -8 9 -21 9 -30 0 -41 -7 -8 -14 -27 -16 -41 -2 -24 0 -26 23
-20 22 5 24 4 13 -9 -7 -8 -18 -14 -24 -13 -7 1 -12 -9 -12 -23 0 -22 4 -25
35 -24 19 1 49 3 65 5 17 2 30 0 30 -6 0 -5 -4 -9 -9 -7 -5 2 -4 -3 2 -11 9
-10 9 -16 0 -25 -8 -8 -5 -9 12 -5 15 4 21 2 16 -5 -4 -8 3 -8 26 -2 40 12 45
7 20 -20 -12 -13 -18 -29 -15 -41 3 -11 0 -31 -7 -45 -14 -25 -9 -41 9 -29 6
3 11 18 11 31 0 14 5 24 11 22 6 -2 10 -6 9 -8 -7 -37 -15 -50 -31 -55 -10 -4
-19 -13 -19 -21 0 -20 12 -17 39 11 13 14 31 25 40 25 9 0 22 5 27 10 6 6 17
8 26 5 21 -8 11 -52 -15 -70 l-21 -15 21 0 c29 0 37 -27 13 -42 -24 -15 -25
-31 -4 -53 9 -8 17 -27 18 -40 0 -14 4 -25 7 -25 4 0 12 -13 19 -30 8 -18 20
-30 31 -30 20 0 26 -15 9 -25 -14 -9 -12 -22 5 -29 8 -3 14 -2 14 2 -3 19 2
25 10 13 8 -12 13 -12 24 -3 12 10 16 9 21 -4 5 -13 9 -14 21 -4 13 10 15 8
15 -14 0 -16 6 -26 14 -26 8 0 27 -16 42 -35 20 -27 24 -38 15 -49 -9 -11 -5
-15 19 -19 17 -4 29 -12 28 -19 -2 -7 6 -14 17 -16 11 -1 26 -15 32 -29 13
-27 9 -35 -21 -46 -14 -5 31 -47 49 -47 8 0 15 -4 15 -8 0 -21 49 -3 85 31 28
26 47 36 63 34 12 -2 22 1 22 7 0 6 4 4 9 -4 6 -8 7 -18 5 -22 -3 -4 -1 -8 5
-8 6 0 15 9 21 21 9 16 14 18 26 8 8 -7 11 -16 6 -23 -20 -26 -21 -45 -2 -43
10 1 16 5 14 9 -3 4 4 8 16 8 11 0 23 -6 26 -13 3 -8 17 -14 33 -14 23 0 27 4
24 21 -3 15 3 24 19 31 13 6 22 18 22 27 -1 9 4 14 11 12 7 -3 16 5 20 18 7
22 7 22 14 -7 6 -27 7 -28 14 -10 8 18 9 19 21 3 15 -20 44 -18 61 6 8 10 16
13 19 7 4 -5 -4 -17 -16 -25 -26 -18 -35 -56 -13 -56 8 0 15 -3 15 -7 -1 -15
-27 -43 -33 -36 -4 3 -7 -11 -7 -31 0 -29 3 -37 14 -33 18 7 29 -19 17 -40 -5
-10 -1 -40 11 -81 16 -53 17 -66 6 -73 -9 -6 -6 -9 12 -9 14 0 35 -1 47 -1 12
0 24 -6 26 -13 8 -20 57 -8 57 14 0 25 45 53 58 37 8 -10 29 -67 37 -103 2 -6
45 -18 97 -26 91 -15 148 -14 148 2 0 5 19 7 43 5 53 -3 52 -2 37 -19 -9 -12
-8 -15 7 -14 10 0 66 -5 125 -12 175 -20 504 7 756 61 214 46 464 135 667 237
130 65 285 157 303 180 6 9 12 13 12 9 0 -4 18 5 40 19 32 21 38 30 29 40 -6
8 -18 14 -25 14 -8 0 -14 9 -14 20 0 11 5 20 10 20 6 0 10 -5 10 -10 0 -6 6
-17 13 -24 10 -12 16 -12 38 0 15 7 29 11 31 8 3 -2 11 2 18 11 10 12 10 15
-4 15 -9 0 -16 5 -16 10 0 6 7 10 15 10 17 0 20 16 5 25 -5 3 -10 2 -10 -3 0
-6 -10 -8 -22 -4 -17 4 -20 2 -15 -11 7 -18 -8 -33 -18 -18 -3 6 -12 8 -20 4
-8 -3 -15 0 -15 6 0 18 -50 33 -66 20 -11 -9 -14 -8 -14 5 0 12 -6 16 -17 12
-12 -4 -34 9 -65 39 -26 24 -50 40 -53 35 -13 -21 -25 -8 -26 28 0 30 -2 33
-9 17 -7 -15 -9 -16 -9 -4 -1 9 6 22 15 30 13 10 17 10 25 -2 7 -12 9 -12 9 1
0 8 -4 30 -9 47 -8 27 -6 33 8 38 26 8 21 45 -6 45 -35 0 -27 15 9 17 38 3 59
-12 51 -35 -5 -13 -3 -14 7 -5 14 13 5 143 -11 143 -5 0 -4 11 1 26 6 14 8 29
5 34 -3 4 4 6 15 3 11 -3 20 -10 20 -17 0 -6 4 -5 9 3 6 8 14 10 22 5 8 -5 20
-9 27 -10 28 -5 42 -28 42 -70 0 -26 5 -44 11 -44 8 0 8 -5 -1 -15 -10 -13 -9
-15 9 -15 14 0 25 9 31 24 7 19 14 23 32 19 23 -6 23 -6 4 15 -19 22 -19 22
10 24 16 0 39 0 51 -1 32 -2 49 34 32 66 -11 20 -11 26 1 33 10 7 11 10 3 10
-7 0 -13 8 -13 18 0 11 -9 27 -19 36 -11 10 -17 24 -15 31 7 17 -21 26 -54 19
-22 -5 -25 -4 -14 7 18 20 15 32 -8 26 -11 -3 -20 -1 -20 4 0 14 36 10 50 -6
13 -15 70 -16 70 0 0 5 5 4 12 -3 7 -7 25 -12 40 -12 32 0 38 -19 8 -27 -11
-3 -20 -9 -20 -13 0 -13 29 -32 38 -26 12 7 10 56 -2 74 -5 8 -4 18 3 25 16
16 14 47 -4 53 -8 4 -15 13 -15 21 0 8 4 12 8 9 4 -2 14 0 22 5 12 8 12 12 3
16 -18 7 -16 23 2 23 8 0 15 5 15 10 0 6 -7 10 -15 10 -8 0 -15 -4 -15 -9 0
-5 -11 -11 -24 -13 -26 -5 -36 7 -36 44 0 16 5 19 25 16 14 -3 25 -1 25 3 0 5
-4 9 -10 9 -14 0 -12 20 3 24 53 16 52 14 21 47 -18 19 -23 28 -11 24 12 -5
17 -2 17 12 0 11 14 33 31 51 18 18 28 36 23 43 -4 8 -3 9 4 5 7 -4 12 -1 12
6 0 7 9 19 20 26 11 7 20 8 20 2 0 -5 9 -14 20 -20 17 -9 22 -7 30 15 5 14 17
25 27 25 17 1 17 2 -1 15 -19 15 -13 40 9 31 7 -2 20 3 29 12 56 61 58 64 47
75 -20 20 -11 25 49 22 33 -1 60 2 60 7 0 4 -7 8 -16 8 -12 0 -15 6 -10 23 3
15 0 26 -13 34 -19 12 -27 73 -10 73 5 0 9 5 9 11 0 16 -51 80 -60 74 -4 -2
-5 6 -3 19 4 18 -2 28 -26 42 -17 10 -31 22 -31 26 0 10 34 16 89 16 30 0 47
5 53 16 6 10 22 16 47 16 l38 0 -2 40 c-1 22 2 37 6 34 5 -3 9 6 9 20 0 29
-19 44 -31 25 -4 -7 -11 -10 -15 -7 -3 4 1 15 10 24 16 16 16 18 -11 36 -25
18 -25 19 -5 15 12 -3 22 -1 22 4 0 11 1 10 -73 13 -34 2 -62 8 -66 15 -5 7
-14 11 -22 9 -8 -1 -24 7 -37 20 -12 12 -19 22 -15 22 4 0 2 5 -5 12 -17 17
-15 28 7 28 11 0 23 5 26 10 3 6 17 10 31 10 32 0 66 18 59 31 -4 5 1 9 10 9
8 0 19 8 22 18 4 9 11 20 16 23 14 9 -1 29 -29 39 -29 11 -31 26 -4 35 23 7
27 25 5 25 -8 0 -15 5 -15 11 0 5 5 7 10 4 6 -3 10 -1 10 4 0 6 7 11 15 11 22
0 18 17 -5 23 -11 3 -20 12 -20 21 0 10 6 14 18 10 14 -5 14 -3 -3 10 -11 9
-26 14 -34 11 -7 -3 -23 2 -33 12 -12 11 -22 14 -26 7 -5 -7 -19 -8 -41 -2
-26 7 -32 13 -28 29 3 10 1 22 -4 25 -19 12 -7 24 24 24 21 0 28 3 19 9 -11 7
-11 9 2 14 9 4 19 -1 25 -10 8 -15 12 -15 45 1 20 9 36 23 36 31 0 8 5 15 10
15 6 0 10 -5 10 -11 0 -8 5 -8 15 1 12 10 15 10 15 -4 0 -19 7 -20 25 -3 9 9
10 19 3 30 -7 13 -5 17 7 17 13 0 19 -12 16 -32 0 -5 6 -8 14 -8 8 0 12 -6 9
-14 -3 -8 0 -17 6 -21 6 -3 9 -1 8 6 -2 7 2 13 9 14 25 1 22 14 -10 47 -37 38
-63 52 -72 38 -8 -13 -55 -13 -55 0 0 6 -5 10 -11 10 -6 0 -18 7 -26 16 -14
13 -14 17 -3 24 8 5 18 6 22 4 5 -3 6 6 2 20 -5 20 -2 26 10 26 9 0 16 5 16
10 0 6 7 10 15 10 21 0 30 27 16 44 -9 10 -5 17 13 31 14 11 23 22 21 26 -3 4
1 7 8 6 40 -1 49 3 37 17 -6 8 -17 13 -25 10 -7 -3 -16 -1 -20 5 -3 6 1 11 9
11 20 0 21 19 1 26 -8 3 -22 -1 -30 -10 -9 -9 -19 -16 -23 -16 -3 0 -1 5 6 12
16 16 15 29 -2 22 -17 -6 -25 22 -15 51 10 30 -1 85 -17 85 -8 0 -14 -7 -14
-15 0 -9 -9 -15 -22 -15 -22 1 -22 1 -4 15 25 19 13 33 -24 27 -57 -8 -13 41
48 54 20 4 42 25 42 40 0 8 7 14 15 14 22 0 18 13 -11 39 -16 14 -32 20 -45
16 -13 -4 -19 -2 -19 9 0 10 9 16 25 16 14 0 25 5 25 10 0 6 -7 10 -15 10 -14
0 -34 35 -48 81 -4 12 -13 15 -32 11 -25 -4 -27 -3 -20 19 3 13 3 19 -2 12
-10 -14 -65 -5 -60 11 2 6 12 11 23 11 13 0 18 6 16 18 -2 11 4 17 15 17 15 0
16 2 3 10 -9 5 -19 5 -26 -1 -8 -6 -13 -3 -17 12 -4 15 -2 19 9 15 8 -3 14 -1
14 5 0 7 14 8 40 4 27 -5 40 -3 40 5 0 6 -4 8 -10 5 -5 -3 -10 1 -10 9 0 10 8
15 22 13 17 -1 23 5 28 30 4 17 4 35 0 40 -4 4 -11 18 -15 31 -5 17 -2 22 11
22 14 0 15 3 6 12 -7 7 -12 20 -12 30 0 10 -7 18 -16 18 -10 0 -14 -6 -10 -15
3 -8 1 -15 -4 -15 -6 0 -10 6 -10 14 0 8 -5 16 -11 18 -7 2 -6 13 2 33 l12 30
6 -30 c4 -20 9 -26 14 -17 7 9 12 9 23 -3 19 -18 40 -9 24 10 -7 8 -7 15 -1
19 5 4 12 3 15 -2 3 -5 34 -8 70 -8 60 1 84 -6 54 -16 -21 -7 3 -28 25 -23 18
5 25 0 35 -27 l13 -33 27 33 c30 36 47 40 56 16 5 -13 2 -15 -14 -11 -13 3
-24 -1 -30 -14 -10 -17 -7 -19 24 -17 31 3 35 6 31 27 -3 19 -1 22 15 18 11
-3 23 -1 26 4 3 5 -4 9 -15 9 -12 0 -21 5 -21 11 0 8 15 10 45 7 25 -3 45 -2
45 3 0 9 -16 13 -34 10 -5 -1 -24 5 -43 14 -37 18 -56 54 -47 89 4 17 -1 25
-21 34 -37 17 -69 16 -61 -3 4 -11 -2 -15 -24 -15 -17 0 -30 4 -30 9 0 13 -29
41 -41 41 -6 0 -8 -9 -4 -19 3 -11 1 -22 -4 -25 -5 -4 -12 8 -16 25 -5 20 -3
34 4 39 7 4 11 11 10 16 0 5 2 19 6 32 5 16 13 21 24 17 13 -5 13 -4 4 6 -10
10 -17 9 -33 -6 -11 -10 -20 -26 -20 -37 0 -20 -16 -24 -23 -5 -3 7 -6 6 -6
-5 -1 -9 -10 -20 -21 -23 -11 -3 -20 -12 -20 -19 0 -12 -36 -18 -98 -18 -20 0
-23 -4 -18 -24 6 -22 5 -23 -13 -12 -13 8 -17 16 -11 22 6 6 10 17 10 25 0 11
-4 9 -15 -6 -18 -26 -46 -21 -61 12 -10 21 -9 25 6 30 29 9 43 33 36 59 -6 23
-9 24 -37 14 -34 -12 -54 -2 -26 13 22 13 22 33 0 25 -9 -4 -20 -1 -24 6 -6
10 -12 8 -22 -6 -14 -19 -14 -19 -25 0 -9 14 -12 15 -12 4 0 -12 -4 -11 -15 4
-17 22 -29 17 -19 -8 3 -9 14 -16 23 -16 13 0 14 -2 2 -9 -22 -14 -65 47 -48
67 10 13 8 14 -11 8 -20 -7 -24 -4 -21 22 0 4 7 6 15 4 8 -2 14 2 14 8 0 5 -6
10 -13 10 -7 0 -18 9 -25 20 -11 17 -10 20 7 20 20 0 51 25 51 40 0 5 -7 7
-15 4 -15 -6 -19 4 -15 41 2 16 0 17 -14 6 -10 -8 -14 -21 -11 -32 11 -35 -14
-19 -26 16 -7 19 -18 34 -24 32 -11 -5 -11 -22 1 -52 6 -17 5 -18 -7 -8 -8 6
-27 13 -44 15 -19 2 -29 8 -27 17 2 8 -3 11 -11 8 -8 -3 -20 0 -26 6 -13 13
-15 31 -3 23 4 -2 8 4 8 15 0 12 -5 18 -14 14 -8 -3 -12 2 -10 12 2 11 -6 19
-22 23 l-25 6 27 6 c16 3 29 0 32 -6 2 -6 3 13 3 41 l-2 53 -45 -4 c-39 -4
-43 -3 -27 9 10 7 14 16 8 19 -5 4 -12 2 -16 -4 -9 -15 -25 -12 -19 4 6 16
-22 30 -55 27 -19 -2 -22 1 -17 14 3 9 6 21 6 26 0 5 5 9 10 9 13 0 13 -27 0
-33 -6 -3 -5 -4 2 -3 22 4 34 34 22 54 -15 23 -13 67 3 67 6 0 15 3 19 8 12
11 24 8 24 -7 0 -10 7 -12 21 -9 21 6 21 7 4 19 -20 15 -13 50 7 37 7 -4 18
-8 23 -8 6 0 11 -12 13 -27 4 -32 22 -37 29 -8 6 23 19 26 26 8 3 -8 6 -6 6 4
1 12 7 16 19 12 12 -4 9 1 -8 16 -21 19 -22 22 -6 19 12 -2 30 -25 44 -54 14
-27 28 -52 32 -55 3 -3 9 -13 13 -22 3 -10 16 -18 27 -18 11 0 20 -4 20 -10 0
-5 5 -10 11 -10 6 0 8 13 5 30 -4 28 -2 30 26 30 25 0 29 -3 25 -20 -4 -15 0
-20 13 -20 19 0 54 -45 45 -59 -2 -5 2 -11 10 -15 8 -3 15 -17 15 -32 0 -25
-2 -26 -34 -21 -28 4 -35 2 -39 -14 -6 -23 2 -59 14 -59 5 0 8 -16 7 -35 -1
-20 -4 -31 -8 -25 -9 14 -70 31 -70 19 0 -5 9 -9 19 -9 14 0 18 -5 14 -20 -3
-11 -12 -20 -21 -20 -13 0 -14 -2 -3 -12 11 -10 14 -10 18 0 3 6 16 12 29 12
13 0 33 9 43 19 36 36 59 43 71 24 9 -15 10 -12 6 14 -6 37 3 42 57 32 30 -5
37 -4 33 7 -3 7 -1 16 4 19 5 3 7 12 3 20 -3 9 1 15 11 15 9 0 13 -6 10 -14
-9 -23 14 -28 28 -6 17 27 25 25 31 -5 2 -14 2 -24 0 -21 -3 3 -14 -4 -26 -14
-11 -11 -24 -17 -29 -14 -5 3 -14 1 -21 -4 -7 -5 -29 -12 -49 -16 -35 -6 -36
-8 -21 -25 15 -19 16 -19 36 0 11 10 24 16 29 13 4 -3 8 -1 8 4 0 15 53 22 69
9 12 -10 12 -9 2 11 -7 14 -8 22 -1 22 5 0 10 -4 10 -10 0 -5 11 -12 25 -16
14 -3 25 -11 25 -16 0 -5 6 -8 12 -6 7 3 20 -5 30 -16 15 -18 17 -18 18 -4 0
9 8 19 18 21 10 3 7 5 -10 6 -22 1 -26 5 -21 19 6 15 5 15 -11 2 -16 -12 -19
-12 -28 3 -5 10 -13 15 -17 12 -5 -2 -14 2 -21 10 -10 12 -9 15 4 15 19 0 22
17 4 23 -7 2 -3 3 8 1 13 -2 24 3 28 12 5 12 2 15 -10 10 -18 -7 -64 3 -64 13
0 4 16 5 37 3 l36 -5 -21 31 c-41 56 -188 217 -290 314 -583 558 -1418 853
-2227 787z m-58 -131 c-1 -12 3 -23 8 -23 6 -1 29 -9 53 -19 39 -17 53 -38 33
-50 -4 -3 -6 -28 -3 -56 3 -31 0 -55 -8 -65 -6 -8 -9 -18 -6 -23 6 -10 -29
-42 -45 -42 -7 0 -9 -10 -5 -25 5 -21 2 -27 -19 -35 -34 -13 -34 -13 -28 10 4
16 1 18 -21 14 -14 -2 -26 0 -26 6 0 5 5 10 10 10 6 0 10 7 10 15 0 9 -6 12
-15 9 -8 -4 -15 -17 -15 -30 0 -13 -4 -24 -8 -24 -11 0 -3 58 9 66 19 11 8 34
-16 34 -29 0 -50 31 -32 49 9 10 8 16 -8 27 -19 15 -19 15 -1 12 15 -2 21 5
28 32 15 58 39 102 59 107 10 3 19 9 19 14 0 5 7 9 15 9 9 0 14 -8 12 -22z
m299 -143 c2 -24 -1 -35 -10 -35 -12 0 -14 17 -7 74 2 21 15 -7 17 -39z m-36
1 c0 -8 -4 -17 -10 -21 -5 -3 -6 -13 -3 -21 4 -12 1 -15 -13 -12 -25 4 -29 31
-9 52 20 20 35 21 35 2z m110 -24 c0 -15 -2 -15 -10 -2 -13 20 -13 33 0 25 6
-3 10 -14 10 -23z m-40 -17 c-7 -9 -15 -13 -19 -10 -3 3 1 10 9 15 21 14 24
12 10 -5z m-26 -24 c3 -5 -3 -11 -14 -14 -13 -3 -20 0 -20 9 0 15 26 19 34 5z
m470 -26 c-4 -8 -8 -15 -10 -15 -2 0 -4 7 -4 15 0 8 4 15 10 15 5 0 7 -7 4
-15z m-1364 -94 c15 -30 12 -33 -10 -11 -22 22 -25 30 -10 30 5 0 14 -9 20
-19z m1715 -22 c11 -17 -1 -21 -15 -4 -8 9 -8 15 -2 15 6 0 14 -5 17 -11z
m-2405 -70 c0 -5 -4 -9 -10 -9 -5 0 -10 7 -10 16 0 8 5 12 10 9 6 -3 10 -10
10 -16z m2490 1 c0 -5 -5 -10 -11 -10 -5 0 -7 5 -4 10 3 6 8 10 11 10 2 0 4
-4 4 -10z m-2518 -42 c-7 -7 -12 -16 -12 -22 0 -5 3 -6 7 -3 12 13 32 -27 22
-45 -5 -10 -7 -18 -3 -18 3 0 1 -7 -6 -15 -11 -13 -15 -12 -35 11 -43 50 -34
104 18 104 16 0 18 -3 9 -12z m2948 -94 c12 -19 25 -32 29 -30 4 3 22 -4 39
-14 26 -16 32 -17 32 -5 0 8 -7 15 -16 15 -9 0 -14 6 -11 13 2 6 11 10 18 8 8
-2 26 -6 42 -9 15 -2 27 -8 27 -13 0 -5 6 -9 14 -9 8 0 17 -7 20 -16 4 -11 10
-13 19 -7 8 7 22 6 41 -2 17 -7 24 -15 18 -19 -7 -4 -21 -2 -32 4 -17 9 -20 8
-20 -9 0 -11 -5 -23 -11 -27 -7 -4 -9 -21 -6 -41 5 -28 3 -34 -8 -29 -8 3 -15
1 -15 -4 0 -6 -7 -10 -16 -10 -8 0 -13 -4 -10 -9 9 -13 -32 -44 -49 -37 -9 3
-13 2 -10 -4 6 -9 1 -11 -37 -14 -8 -1 -13 16 -13 47 -1 32 3 47 11 47 7 0 16
5 20 12 5 7 0 9 -14 6 -27 -7 -40 25 -20 49 11 13 11 17 0 21 -7 2 -17 15 -23
29 -5 13 -13 21 -19 18 -5 -3 -10 -1 -10 5 0 7 -6 10 -14 7 -9 -3 -17 3 -21
16 -6 18 -8 19 -12 6 -5 -22 -77 -41 -94 -25 -9 8 -10 7 -5 -8 9 -26 -11 -37
-41 -23 -25 11 -33 40 -8 31 20 -8 19 5 -2 29 -17 19 -17 19 3 13 17 -5 23 -2
28 19 5 21 9 23 24 14 14 -9 26 -8 48 2 38 19 74 2 104 -47z m35 16 c3 -5 2
-10 -4 -10 -5 0 -13 5 -16 10 -3 6 -2 10 4 10 5 0 13 -4 16 -10z m-2662 -40
c48 -21 76 -57 34 -45 -32 10 -87 45 -87 56 0 12 1 12 53 -11z m-208 0 c3 -5
1 -10 -4 -10 -6 0 -11 5 -11 10 0 6 2 10 4 10 3 0 8 -4 11 -10z m13 -47 c0
-16 3 -40 7 -55 5 -18 3 -28 -4 -28 -6 0 -11 9 -11 20 0 21 -16 28 -22 10 -4
-13 -58 37 -58 53 0 7 4 6 10 -3 9 -13 12 -13 23 1 6 9 18 14 25 12 6 -3 12 0
12 6 0 6 4 11 9 11 4 0 8 -12 9 -27z m2707 7 c3 -5 1 -10 -4 -10 -6 0 -11 5
-11 10 0 6 2 10 4 10 3 0 8 -4 11 -10z m429 -6 c3 -8 2 -12 -4 -9 -6 3 -10 10
-10 16 0 14 7 11 14 -7z m-3167 -91 c-4 -3 -2 -12 4 -19 7 -8 7 -14 -1 -19 -5
-3 -10 1 -10 9 0 9 -4 16 -10 16 -5 0 -10 5 -10 10 0 6 8 10 17 10 9 0 13 -3
10 -7z m2888 -33 c3 -5 1 -10 -4 -10 -6 0 -11 5 -11 10 0 6 2 10 4 10 3 0 8
-4 11 -10z m-7 -70 c0 -26 -5 -39 -12 -37 -18 6 -15 77 4 77 5 0 8 -18 8 -40z
m-2833 20 c3 -5 -1 -10 -9 -10 -8 0 -18 5 -21 10 -3 6 1 10 9 10 8 0 18 -4 21
-10z m3278 -16 c-4 -12 -8 -13 -14 -3 -9 15 -2 32 11 24 5 -3 6 -13 3 -21z
m-3705 -6 c7 -7 12 -22 12 -34 0 -13 4 -25 9 -28 5 -3 7 -24 5 -46 -3 -30 0
-40 11 -40 8 0 15 -7 15 -16 0 -8 -4 -12 -10 -9 -5 3 -10 2 -10 -4 0 -17 17
-22 45 -11 20 8 27 7 31 -5 4 -8 14 -15 24 -15 24 0 36 -70 14 -86 -21 -16
-49 -7 -64 22 -10 18 -16 21 -26 13 -7 -6 -18 -8 -24 -4 -7 4 -14 -2 -17 -14
-3 -11 -9 -18 -14 -15 -5 2 -20 -3 -34 -12 -23 -15 -25 -15 -25 0 0 9 -4 16
-9 16 -12 0 -23 -29 -15 -41 6 -11 -19 -39 -35 -39 -19 0 -12 -20 7 -21 14 0
14 -2 -3 -9 -19 -8 -16 -12 14 -14 28 -2 20 -21 -19 -49 -40 -28 -55 -55 -24
-43 8 3 12 2 9 -4 -3 -6 -12 -10 -20 -10 -7 0 -15 -7 -19 -15 -3 -8 -10 -15
-16 -15 -6 0 -8 5 -5 10 4 7 -2 9 -17 5 -16 -4 -29 -1 -37 9 -11 13 -11 16 2
16 20 0 17 38 -7 94 -9 22 -14 41 -11 44 3 3 -2 13 -11 23 -9 10 -14 24 -12
31 3 7 -2 19 -9 27 -8 8 -10 17 -5 20 5 3 14 16 21 29 6 12 16 22 22 22 17 0
48 43 49 68 0 13 6 22 15 22 10 0 15 8 14 23 -1 12 -1 32 -1 44 2 20 4 21 27
11 18 -8 24 -17 20 -29 -3 -9 -2 -20 3 -23 9 -5 19 14 36 67 3 10 15 17 31 17
14 0 28 7 31 15 7 18 16 19 32 3z m2795 -32 c-12 -16 -20 -20 -25 -12 -4 6 0
17 9 24 27 20 35 14 16 -12z m942 4 c3 -5 -1 -10 -9 -10 -9 0 -16 5 -16 10 0
6 4 10 9 10 6 0 13 -4 16 -10z m195 -21 c0 -5 -4 -9 -10 -9 -5 0 -10 7 -10 16
0 8 5 12 10 9 6 -3 10 -10 10 -16z m-3845 1 c3 -5 1 -10 -4 -10 -6 0 -11 5
-11 10 0 6 2 10 4 10 3 0 8 -4 11 -10z m3140 0 c3 -5 1 -10 -4 -10 -6 0 -11 5
-11 10 0 6 2 10 4 10 3 0 8 -4 11 -10z m-2940 -89 c-6 -5 -25 10 -25 20 0 5 6
4 14 -3 8 -7 12 -15 11 -17z m3141 -6 c-10 -8 -23 -12 -28 -9 -14 9 2 24 25
24 21 -1 21 -1 3 -15z m664 -5 c0 -13 -28 -25 -38 -16 -3 4 0 11 8 16 20 13
30 12 30 0z m-3823 -22 c-3 -8 -6 -5 -6 6 -1 11 2 17 5 13 3 -3 4 -12 1 -19z
m3736 -65 c-3 -9 -9 -11 -15 -5 -5 5 -6 17 -2 26 5 13 9 14 14 5 5 -7 6 -19 3
-26z m-519 2 c4 -10 -1 -15 -15 -15 -17 0 -18 2 -7 15 16 18 15 18 22 0z m456
-3 c0 -5 -7 -9 -15 -9 -8 0 -15 4 -15 9 0 4 7 8 15 8 8 0 15 -4 15 -8z m-405
-112 c-3 -5 4 -23 16 -40 13 -16 19 -33 15 -37 -4 -4 -10 -2 -14 4 -4 6 -20
15 -35 18 -15 4 -27 11 -27 16 0 5 6 6 14 3 17 -6 31 12 16 21 -12 7 -4 25 11
25 6 0 7 -4 4 -10z m-1925 -35 c-7 -9 -15 -13 -18 -10 -3 2 1 11 8 20 7 9 15
13 18 10 3 -2 -1 -11 -8 -20z m7 -40 c-4 -8 -2 -17 3 -20 4 -3 10 0 12 6 7 22
48 -1 48 -27 l0 -25 23 27 c27 31 88 42 111 19 34 -35 60 -91 62 -136 1 -26 6
-54 10 -61 5 -7 9 -28 10 -47 0 -21 8 -39 20 -48 10 -8 18 -21 16 -29 -2 -8 4
-14 12 -14 11 0 14 9 11 35 -2 19 1 35 6 35 10 0 34 -41 31 -55 -1 -6 8 -15
21 -20 17 -8 22 -18 21 -43 -1 -17 2 -30 7 -27 16 11 28 -33 27 -101 0 -91 0
-96 11 -90 4 3 7 -16 5 -42 -6 -70 13 -110 30 -64 12 30 31 62 37 62 12 0 29
-52 21 -64 -5 -6 -7 -24 -6 -39 2 -22 -1 -27 -12 -23 -11 4 -11 0 3 -20 16
-24 16 -26 -3 -22 -14 2 -18 -2 -16 -16 2 -11 -1 -15 -7 -11 -6 3 -11 14 -11
23 0 12 -3 13 -12 4 -9 -9 -9 -15 0 -24 8 -8 9 -15 1 -25 -9 -10 -8 -13 5 -13
9 0 16 -4 16 -10 0 -5 6 -10 13 -10 9 0 12 -10 9 -30 -2 -16 -8 -30 -13 -30
-5 0 -9 -9 -9 -20 0 -11 5 -20 10 -20 6 0 10 7 10 15 0 8 5 15 10 15 6 0 10
-4 10 -10 0 -5 13 -7 30 -3 27 5 31 3 36 -26 4 -20 11 -30 19 -27 9 3 14 -10
17 -42 5 -55 4 -59 -17 -42 -12 10 -15 10 -15 0 0 -7 7 -18 16 -25 9 -6 15
-18 12 -26 -3 -10 -9 -8 -23 9 -11 12 -23 22 -27 22 -9 0 -5 -45 7 -93 5 -19
3 -33 -8 -45 -12 -14 -12 -23 -3 -51 9 -24 15 -31 20 -22 7 11 10 11 17 0 6
-10 9 -7 10 11 l1 25 7 -25 c6 -23 8 -22 34 23 30 50 43 60 34 26 -8 -31 2
-51 24 -44 11 4 19 2 19 -4 0 -6 -7 -11 -15 -11 -17 0 -19 -9 -5 -30 8 -12 10
-12 16 3 9 25 21 21 28 -9 8 -30 -1 -45 -14 -24 -15 24 -24 2 -12 -25 7 -14
12 -34 12 -45 0 -24 20 -37 30 -20 11 18 60 20 60 3 0 -7 4 -13 10 -13 13 0
60 52 55 60 -7 12 43 53 58 47 8 -3 17 -19 20 -36 5 -22 11 -29 21 -25 10 4
14 -1 13 -15 -1 -12 -5 -21 -9 -21 -4 0 -4 -10 1 -22 5 -14 15 -22 26 -20 13
3 15 -1 10 -20 -4 -13 -12 -26 -18 -30 -7 -4 0 -12 16 -19 15 -7 27 -20 27
-31 0 -10 5 -18 10 -18 15 0 12 -19 -5 -37 -20 -20 -48 -9 -40 16 5 16 1 18
-37 14 -31 -4 -45 -1 -53 11 -18 25 -61 0 -57 -33 3 -16 0 -21 -9 -16 -7 5
-17 2 -23 -7 -6 -8 -33 -25 -61 -38 -27 -12 -63 -37 -80 -54 -16 -18 -43 -37
-58 -44 -15 -6 -32 -22 -36 -34 -8 -20 -10 -21 -16 -5 -8 20 -35 23 -35 4 0
-7 5 -18 11 -24 13 -13 4 -33 -17 -33 -9 0 -14 -11 -14 -30 0 -20 -5 -30 -15
-30 -8 0 -15 5 -15 10 0 6 -5 10 -10 10 -6 0 -10 -12 -10 -27 1 -16 -2 -41 -6
-58 l-7 -30 29 29 29 28 6 -33 c8 -38 2 -60 -15 -53 -22 8 -45 -21 -50 -66
-12 -93 -23 -138 -60 -235 -17 -46 -21 -89 -6 -80 5 3 12 -7 16 -22 4 -15 13
-35 20 -43 7 -9 11 -26 7 -38 -6 -24 -19 -29 -26 -9 -2 6 -7 9 -11 5 -4 -3 -3
-16 4 -27 9 -17 15 -19 30 -11 25 13 30 13 30 -5 0 -8 7 -15 15 -15 19 0 19
-4 1 -43 -8 -18 -16 -39 -19 -47 -3 -9 -8 -1 -14 19 -5 19 -14 36 -20 38 -16
6 -41 -39 -43 -78 -3 -48 -1 -56 9 -40 16 25 31 1 26 -42 -3 -23 -2 -36 1 -29
8 17 24 15 24 -4 0 -11 5 -14 16 -10 12 4 15 2 11 -9 -4 -8 -2 -17 3 -20 12
-8 13 -35 2 -35 -5 0 -15 11 -22 25 -12 23 -14 23 -26 7 -8 -11 -9 -21 -3 -29
7 -8 5 -12 -5 -15 -14 -3 -14 -6 -2 -30 13 -24 12 -30 -10 -59 -13 -18 -24
-39 -24 -46 0 -7 -4 -13 -10 -13 -5 0 -7 -7 -4 -15 4 -8 1 -15 -6 -15 -6 0
-10 -10 -9 -22 2 -13 -2 -33 -9 -44 -6 -12 -14 -41 -18 -64 -4 -24 -15 -51
-26 -62 -15 -15 -16 -19 -4 -24 22 -9 -1 -56 -24 -49 -11 4 -32 -11 -63 -43
-25 -27 -56 -52 -69 -55 -12 -3 -38 -10 -55 -15 -20 -6 -33 -7 -33 -1 0 5 -6
9 -14 9 -18 0 -116 167 -116 197 0 13 -7 40 -15 60 -8 19 -15 43 -15 53 0 10
-6 40 -14 66 -8 27 -20 76 -26 109 -7 33 -16 74 -22 91 -5 17 -11 58 -14 90
-6 63 -11 77 -23 69 -5 -2 -11 27 -13 65 -3 41 -12 80 -22 95 -10 15 -16 36
-15 48 3 30 -10 57 -27 57 -10 0 -12 8 -8 28 4 19 1 34 -9 44 -9 9 -13 24 -10
37 3 11 0 28 -7 36 -6 8 -9 19 -5 25 4 6 1 25 -5 41 -11 27 -10 32 10 54 l23
24 -29 11 c-22 9 -25 13 -14 20 13 8 12 11 -2 22 -21 15 -36 78 -19 78 6 0 11
4 11 10 0 5 -7 7 -16 3 -14 -5 -15 -3 -5 15 6 11 17 27 24 34 8 7 23 41 35 75
21 59 21 93 1 93 -5 0 -9 5 -9 11 0 6 6 9 13 6 16 -6 14 -27 22 323 4 162 8
314 8 338 1 28 -4 47 -13 52 -20 13 -63 13 -55 0 12 -20 -6 -29 -25 -13 -15
13 -16 19 -7 25 6 4 8 8 2 9 -5 0 -22 2 -37 4 -21 3 -28 -1 -28 -13 0 -13 -5
-11 -20 8 l-19 25 -35 -34 c-20 -19 -36 -42 -36 -50 0 -11 3 -11 13 3 13 18
14 18 21 0 4 -11 3 -20 -3 -22 -6 -2 -11 -11 -11 -19 0 -16 -27 -42 -44 -43
-4 0 -6 7 -3 15 4 8 2 17 -4 20 -5 4 -12 -2 -16 -12 -10 -26 -31 -45 -43 -38
-17 10 -11 25 7 18 12 -5 15 -2 10 9 -3 10 0 19 9 22 9 3 12 10 9 16 -4 7 -13
7 -26 0 -15 -8 -19 -7 -19 4 0 7 -9 24 -21 37 -13 15 -19 18 -16 8 3 -9 0 -22
-6 -28 -8 -8 -8 -11 1 -11 7 0 12 -5 12 -11 0 -6 -9 -8 -20 -4 -11 3 -20 3
-20 -2 0 -4 9 -14 20 -21 11 -7 20 -19 20 -27 0 -8 5 -15 10 -15 6 0 10 -7 10
-15 0 -8 -5 -15 -10 -15 -6 0 -13 7 -16 15 -4 8 -15 15 -25 15 -10 0 -19 6
-19 14 0 7 -16 21 -35 30 -38 18 -74 81 -56 99 6 6 -1 20 -20 39 -16 16 -29
36 -29 44 0 9 -4 13 -9 10 -13 -9 -32 19 -25 38 3 9 10 16 15 16 4 0 5 -8 2
-17 -5 -12 -2 -15 9 -11 19 8 38 -9 38 -33 0 -19 27 -45 37 -35 4 4 0 19 -9
34 -10 18 -14 42 -12 72 4 39 3 42 -9 26 -13 -18 -14 -18 -20 4 -5 19 -11 22
-36 18 -46 -7 -38 9 8 17 22 4 42 13 45 21 3 8 13 14 21 14 9 0 14 4 10 9 -3
5 -1 12 4 15 5 4 11 0 13 -8 2 -10 9 -11 27 -5 26 10 24 19 -6 23 -10 2 -19
11 -20 22 -2 10 0 13 3 7 7 -15 44 -17 44 -3 0 6 -7 10 -16 10 -11 0 -15 6
-11 19 3 11 -2 29 -10 40 -8 12 -10 21 -5 21 8 0 32 42 32 55 0 3 -7 5 -15 5
-17 0 -20 25 -5 35 6 3 10 12 10 18 0 8 -3 7 -9 -2 -5 -7 -14 -10 -21 -6 -9 6
-9 10 1 17 11 7 11 11 2 15 -7 2 -13 11 -13 19 0 17 1 17 36 -1 22 -11 30 -12
36 -2 10 15 10 87 1 86 -20 -3 -26 2 -13 11 11 7 7 10 -18 10 -29 0 -32 -2
-22 -19 16 -30 12 -49 -6 -26 -12 17 -16 18 -24 5 -5 -8 -12 -11 -16 -8 -3 4
1 14 10 24 11 11 14 20 7 28 -16 18 -6 98 14 108 13 8 18 5 22 -12 3 -13 11
-19 19 -16 15 6 94 -68 94 -86 0 -6 9 -3 19 6 11 10 24 15 30 12 5 -4 11 6 13
21 2 19 9 28 19 27 11 -1 17 7 17 20 1 11 4 53 7 91 3 39 6 82 6 97 0 25 2 26
34 21 30 -5 38 -1 56 21 11 14 25 24 30 21 5 -4 9 1 9 9 0 9 4 16 9 16 21 0
22 -22 2 -56 l-21 -35 22 7 c13 3 23 7 23 8 15 37 28 56 40 56 8 0 15 5 15 10
0 6 5 10 11 10 8 0 7 -6 -2 -17 -11 -13 -11 -17 -1 -21 8 -2 10 -8 3 -16 -6
-7 -4 -18 5 -30 14 -19 14 -19 44 2 21 16 28 18 23 7 -3 -10 0 -15 8 -13 9 2
15 -8 17 -29 3 -32 22 -47 22 -18 0 8 5 15 10 15 6 0 10 -9 10 -20 0 -11 5
-20 10 -20 6 0 10 9 10 20 0 11 6 20 14 20 16 0 26 21 26 58 0 15 7 36 15 46
17 22 21 91 5 81 -5 -3 -10 -15 -10 -26 0 -10 -4 -19 -10 -19 -11 0 -3 51 16
98 9 22 20 32 35 32 14 0 19 -5 16 -15z m-2187 -35 c0 -5 -7 -10 -15 -10 -8 0
-15 5 -15 10 0 6 7 10 15 10 8 0 15 -4 15 -10z m305 -31 c0 -8 -9 -14 -20 -14
-15 0 -20 7 -20 27 -1 26 1 27 20 14 11 -7 20 -20 20 -27z m3964 -21 c-8 -16
-14 -19 -17 -9 -2 7 2 24 9 39 11 19 15 21 17 9 2 -9 -2 -26 -9 -39z m-3849
-42 c0 -3 -4 -8 -10 -11 -5 -3 -10 -1 -10 4 0 6 5 11 10 11 6 0 10 -2 10 -4z
m3782 -18 c-7 -7 -12 -8 -12 -2 0 6 3 14 7 17 3 4 9 5 12 2 2 -3 -1 -11 -7
-17z m312 -63 c-4 -8 -7 -15 -9 -15 -2 0 -5 7 -9 15 -3 9 0 15 9 15 9 0 12 -6
9 -15z m-24 -25 c0 -5 -4 -10 -10 -10 -5 0 -10 5 -10 10 0 6 5 10 10 10 6 0
10 -4 10 -10z m-2951 -34 c9 -10 8 -15 -2 -19 -8 -3 -13 3 -14 14 -2 23 1 24
16 5z m2870 -18 c-4 -32 2 -49 20 -56 19 -7 19 -7 0 -31 -11 -13 -22 -21 -25
-18 -7 6 -13 99 -7 110 7 11 14 8 12 -5z m325 -9 c-3 -5 -10 -7 -15 -3 -5 3
-7 10 -3 15 3 5 10 7 15 3 5 -3 7 -10 3 -15z m-3143 -22 c-1 -12 -15 -9 -19 4
-3 6 1 10 8 8 6 -3 11 -8 11 -12z m3253 -43 c4 -9 4 -19 1 -22 -3 -3 -5 -1 -5
5 0 6 -9 13 -20 16 -21 5 -29 -8 -8 -15 8 -3 8 -9 1 -23 -10 -17 -11 -17 -22
3 -12 23 -31 30 -31 11 0 -5 5 -7 10 -4 14 9 12 -4 -3 -20 -11 -11 -15 -10
-25 5 -10 16 -6 22 21 38 40 25 73 27 81 6z m-147 -16 c-3 -8 -6 -5 -6 6 -1
11 2 17 5 13 3 -3 4 -12 1 -19z m-3115 -41 c4 -20 1 -23 -19 -19 -26 5 -29 12
-11 30 18 18 25 15 30 -11z m3343 -7 c3 -5 1 -10 -4 -10 -6 0 -11 5 -11 10 0
6 2 10 4 10 3 0 8 -4 11 -10z m-3515 -50 c0 -5 -2 -10 -4 -10 -3 0 -8 5 -11
10 -3 6 -1 10 4 10 6 0 11 -4 11 -10z m3083 -77 c-21 -8 -15 -26 7 -20 11 3
20 2 20 -2 0 -14 -25 -31 -46 -31 -12 0 -24 -5 -26 -12 -3 -8 -9 -8 -24 0 -18
11 -18 11 4 12 15 0 22 5 19 13 -6 16 22 47 42 46 10 0 12 -2 4 -6z m-1778
-53 c-9 -15 -25 -2 -25 21 0 19 1 19 16 5 8 -9 12 -20 9 -26z m1685 -20 c0 -5
-10 -10 -22 -10 -19 0 -20 2 -8 10 19 13 30 13 30 0z m-4130 -79 c0 -19 -25
-29 -37 -16 -10 11 -9 15 5 18 28 8 32 7 32 -2z m4240 -83 c0 -13 -20 -9 -35
6 -11 10 -11 16 -2 25 9 9 15 8 24 -6 7 -9 13 -20 13 -25z m15 -38 c-3 -5 -10
-10 -16 -10 -5 0 -9 5 -9 10 0 6 7 10 16 10 8 0 12 -4 9 -10z m-1765 -36 c0
-8 -5 -12 -10 -9 -6 4 -8 11 -5 16 9 14 15 11 15 -7z m1890 -34 c0 -5 -7 -10
-16 -10 -8 0 -12 5 -9 10 3 6 10 10 16 10 5 0 9 -4 9 -10z m-4530 -30 c0 -5
-4 -10 -9 -10 -6 0 -13 5 -16 10 -3 6 1 10 9 10 9 0 16 -4 16 -10z m40 -20 c0
-5 -4 -10 -10 -10 -5 0 -10 5 -10 10 0 6 5 10 10 10 6 0 10 -4 10 -10z m4523
-105 c-3 -9 -8 -14 -10 -11 -3 3 -2 9 2 15 9 16 15 13 8 -4z m-4613 -49 c0 -3
-4 -8 -10 -11 -5 -3 -10 -1 -10 4 0 6 5 11 10 11 6 0 10 -2 10 -4z m1881 -94
c5 -13 4 -22 -1 -22 -6 0 -10 5 -10 11 0 6 -7 9 -15 5 -17 -6 -18 -4 -9 19 8
21 25 15 35 -13z m886 -74 c-3 -7 -5 -2 -5 12 0 14 2 19 5 13 2 -7 2 -19 0
-25z m18 -39 c11 -17 -1 -21 -15 -4 -8 9 -8 15 -2 15 6 0 14 -5 17 -11z m225
-17 c0 -13 -12 -22 -22 -16 -10 6 -1 24 13 24 5 0 9 -4 9 -8z m293 -35 c22 -8
13 -27 -14 -27 -14 0 -19 7 -19 28 0 15 4 22 8 16 4 -6 15 -13 25 -17z m1204
-3 c-3 -3 -12 -4 -19 -1 -8 3 -5 6 6 6 11 1 17 -2 13 -5z m-1327 -39 c0 -12
-19 -12 -23 0 -4 9 -1 12 9 8 7 -3 14 -7 14 -8z m17 -38 c-17 -7 -19 -10 -7
-17 8 -5 11 -12 7 -17 -11 -11 -26 17 -19 36 8 23 25 32 34 18 4 -7 -1 -15
-15 -20z m73 3 c0 -5 -2 -10 -4 -10 -3 0 -8 5 -11 10 -3 6 -1 10 4 10 6 0 11
-4 11 -10z m26 -27 c-10 -10 -19 5 -10 18 6 11 8 11 12 0 2 -7 1 -15 -2 -18z
m114 12 c10 -12 10 -21 2 -38 l-11 -22 -7 23 c-8 27 -24 28 -47 2 -9 -11 -24
-20 -33 -20 -12 0 -5 11 20 35 41 39 57 43 76 20z m1095 5 c4 -6 -7 -10 -25
-10 -18 0 -29 -4 -25 -10 7 -12 3 -12 -19 -4 -13 5 -14 9 -5 20 13 16 65 19
74 4z m98 -10 c10 0 15 -5 12 -11 -4 -6 -13 -8 -20 -5 -8 3 -15 0 -17 -6 -3
-8 -10 -8 -24 1 -17 12 -17 12 0 7 15 -5 17 -2 13 15 -4 16 -3 19 6 10 6 -6
19 -11 30 -11z m-1367 -15 c-3 -20 -24 -40 -32 -32 -4 4 1 16 11 27 22 24 24
25 21 5z m31 -12 c-4 -3 0 -15 10 -25 17 -20 17 -19 -12 -23 -11 -1 -30 -5
-42 -9 -15 -5 -23 -3 -23 4 0 6 5 8 10 5 6 -3 10 -1 10 4 0 14 32 51 44 51 5
0 6 -3 3 -7z m73 -53 c-8 -5 -19 -10 -25 -10 -5 0 -3 5 5 10 8 5 20 10 25 10
6 0 3 -5 -5 -10z m-103 -56 c-3 -3 -12 -4 -19 -1 -8 3 -5 6 6 6 11 1 17 -2 13
-5z m120 -45 c2 -22 -1 -29 -11 -26 -8 3 -18 1 -24 -5 -6 -6 -27 -13 -45 -15
-31 -3 -34 -1 -30 21 6 29 52 54 65 34 7 -10 12 -9 21 5 17 24 22 21 24 -14z
m70 25 c-3 -3 -12 -4 -19 -1 -8 3 -5 6 6 6 11 1 17 -2 13 -5z m1192 -20 c-6
-8 -18 -14 -25 -14 -8 0 -14 -4 -14 -10 0 -5 -7 -7 -15 -4 -21 8 0 34 26 34
11 0 19 5 19 11 0 5 5 7 10 4 8 -5 7 -11 -1 -21z m-4938 -30 c-23 -29 -27 -49
-11 -59 5 -3 8 0 5 7 -3 7 3 18 14 25 17 11 19 8 24 -34 3 -28 11 -50 21 -55
26 -15 18 -27 -9 -15 -14 7 -25 20 -25 30 0 14 -5 16 -27 11 -16 -4 -29 -11
-31 -16 -6 -15 -22 -8 -23 10 -1 16 -2 16 -6 0 -5 -21 -19 -23 -26 -4 -9 22 5
96 17 96 7 0 18 -6 25 -12 10 -10 15 -10 18 -1 9 25 47 66 51 55 2 -7 -6 -24
-17 -38z m4857 -4 c-2 -7 -10 1 -17 16 -12 27 -11 28 4 12 10 -9 16 -21 13
-28z m-1467 -33 c-13 -13 -26 -3 -16 12 3 6 11 8 17 5 6 -4 6 -10 -1 -17z
m-3291 -68 c0 -6 -4 -7 -10 -4 -5 3 -10 11 -10 16 0 6 5 7 10 4 6 -3 10 -11
10 -16z m4651 -2 c-7 -7 -14 -8 -21 -1 -6 6 -2 10 12 11 16 2 18 -1 9 -10z
m-1506 -27 c3 -6 -1 -7 -9 -4 -18 7 -21 14 -7 14 6 0 13 -4 16 -10z m-3155
-100 c0 -5 -5 -10 -11 -10 -5 0 -7 5 -4 10 3 6 8 10 11 10 2 0 4 -4 4 -10z
m145 1 c-6 -5 -21 -12 -35 -15 -24 -7 -24 -6 -6 8 21 17 57 23 41 7z m1955
-31 c0 -5 -4 -10 -10 -10 -5 0 -10 5 -10 10 0 6 5 10 10 10 6 0 10 -4 10 -10z
m-2155 -30 c3 -5 2 -10 -3 -10 -6 0 -8 -9 -5 -20 3 -11 1 -20 -5 -20 -11 0
-22 23 -22 46 0 16 26 19 35 4z m209 -2 c-5 -8 23 -10 114 -5 137 8 183 2 175
-20 -4 -10 -9 -11 -16 -4 -15 15 -27 14 -27 -1 0 -9 -17 -13 -58 -12 -136 4
-221 22 -207 45 4 5 11 9 16 9 6 0 7 -5 3 -12z m4691 -68 c3 -5 1 -10 -4 -10
-6 0 -11 5 -11 10 0 6 2 10 4 10 3 0 8 -4 11 -10z m-4385 -20 c0 -5 -5 -10
-11 -10 -5 0 -7 5 -4 10 3 6 8 10 11 10 2 0 4 -4 4 -10z m-90 -168 c0 -15 -48
-35 -68 -30 -12 4 -30 -3 -45 -18 -14 -13 -29 -20 -32 -14 -3 5 -13 6 -23 3
-14 -5 -15 -3 -4 8 6 7 12 22 12 32 0 17 6 19 55 15 30 -3 55 -1 55 4 0 4 11
8 25 8 14 0 25 -4 25 -8z m-6 -407 c3 -8 16 -15 28 -16 l23 0 -22 -11 c-13 -6
-23 -14 -23 -17 0 -13 -39 -9 -50 4 -16 20 -3 40 16 24 19 -16 30 -4 14 16 -7
8 -8 15 -2 15 5 0 12 -7 16 -15z m-36 -57 c7 -7 12 -19 11 -27 0 -14 -1 -14
-6 -1 -4 8 -13 20 -22 27 -9 7 -11 13 -5 13 5 0 15 -5 22 -12z m2599 -41 c2
-29 -11 -36 -21 -11 -10 26 -7 46 6 42 7 -3 14 -17 15 -31z m-2657 -7 c0 -5
-4 -10 -10 -10 -5 0 -10 5 -10 10 0 6 5 10 10 10 6 0 10 -4 10 -10z m74 -16
c3 -8 2 -12 -4 -9 -6 3 -10 10 -10 16 0 14 7 11 14 -7z m2626 -8 c0 -3 -4 -8
-10 -11 -5 -3 -10 -1 -10 4 0 6 5 11 10 11 6 0 10 -2 10 -4z m-2520 -30 c0 -3
-4 -8 -10 -11 -5 -3 -10 -1 -10 4 0 6 5 11 10 11 6 0 10 -2 10 -4z m2398 -71
c-3 -3 -9 2 -12 12 -6 14 -5 15 5 6 7 -7 10 -15 7 -18z m1790 -86 c-2 -6 -8
-10 -13 -10 -5 0 -11 4 -13 10 -2 6 4 11 13 11 9 0 15 -5 13 -11z m-3800 -61
c-6 -18 -28 -21 -28 -4 0 9 7 16 16 16 9 0 14 -5 12 -12z m46 -4 c9 -3 16 -13
16 -21 0 -8 -5 -11 -10 -8 -6 4 -18 1 -26 -6 -20 -17 -28 -5 -12 20 7 12 14
21 15 21 1 0 8 -3 17 -6z m76 2 c0 -3 -4 -8 -10 -11 -5 -3 -10 -1 -10 4 0 6 5
11 10 11 6 0 10 -2 10 -4z m1983 -16 c3 -11 1 -20 -4 -20 -5 0 -9 -8 -9 -19 0
-23 -25 -45 -41 -35 -9 5 -10 2 -5 -12 18 -43 23 -72 17 -83 -6 -9 -11 -9 -19
1 -6 8 -7 19 -2 27 5 9 -1 28 -17 53 -28 41 -24 60 7 40 18 -11 19 -10 8 13
-13 29 -1 49 13 22 12 -21 29 -13 29 14 0 25 16 25 23 -1z m-97 -27 c-10 -10
-19 5 -10 18 6 11 8 11 12 0 2 -7 1 -15 -2 -18z m-1906 -8 c0 -8 -2 -15 -4
-15 -2 0 -6 7 -10 15 -3 8 -1 15 4 15 6 0 10 -7 10 -15z m3510 5 c0 -5 -4 -10
-10 -10 -5 0 -10 5 -10 10 0 6 5 10 10 10 6 0 10 -4 10 -10z m-3727 -24 c4
-10 1 -13 -9 -9 -7 3 -14 9 -14 14 0 14 17 10 23 -5z m57 4 c12 -7 10 -9 -8
-7 -12 0 -22 5 -22 9 0 11 12 10 30 -2z m-3 -36 c-3 -3 -12 -4 -19 -1 -8 3 -5
6 6 6 11 1 17 -2 13 -5z m2049 -21 c-2 -10 -8 -33 -11 -52 -6 -30 -5 -33 12
-29 16 4 18 0 14 -36 -2 -23 -8 -47 -13 -53 -14 -18 -38 -16 -38 2 0 8 4 15 9
15 11 0 22 40 15 52 -3 5 -11 4 -18 -1 -7 -6 -15 -8 -19 -5 -9 10 5 78 22 101
19 27 34 30 27 6z m197 -86 c-7 -11 -16 0 -31 38 l-12 30 24 -29 c14 -17 22
-34 19 -39z m-49 -2 c-4 -15 -2 -25 5 -25 6 0 11 5 11 12 0 6 2 9 5 6 3 -3 2
-15 -3 -28 l-8 -22 -17 25 c-10 16 -13 28 -7 32 6 4 8 11 5 16 -4 5 -1 9 5 9
6 0 8 -10 4 -25z m-67 -27 c-3 -8 -6 -5 -6 6 -1 11 2 17 5 13 3 -3 4 -12 1
-19z m-11 -22 c3 -8 4 -25 2 -38 -2 -19 -5 -17 -15 15 -10 35 1 55 13 23z
m-1996 -6 c0 -5 -8 -10 -17 -10 -15 0 -16 2 -3 10 19 12 20 12 20 0z m-318
-32 c-8 -8 -9 -4 -5 13 4 13 8 18 11 10 2 -7 -1 -18 -6 -23z m278 -2 c0 -3 -4
-8 -10 -11 -5 -3 -10 -1 -10 4 0 6 5 11 10 11 6 0 10 -2 10 -4z m1994 -34 c-7
-33 -24 -44 -24 -16 0 18 20 58 26 51 2 -2 1 -18 -2 -35z m-2169 8 c-3 -5 -14
-10 -23 -9 -14 0 -13 2 3 9 27 11 27 11 20 0z m3675 -240 c0 -5 -2 -10 -4 -10
-3 0 -8 5 -11 10 -3 6 -1 10 4 10 6 0 11 -4 11 -10z m-450 -46 c0 -8 -4 -12
-10 -9 -5 3 -10 10 -10 16 0 5 5 9 10 9 6 0 10 -7 10 -16z m155 -64 c3 -5 2
-10 -4 -10 -5 0 -18 -3 -28 -7 -16 -6 -16 -5 -4 10 15 19 27 22 36 7z m-675
-81 c0 -6 -4 -7 -10 -4 -5 3 -10 11 -10 16 0 6 5 7 10 4 6 -3 10 -11 10 -16z
m600 2 c0 -5 9 -11 20 -14 19 -5 29 -37 11 -37 -13 0 -60 47 -54 54 9 9 23 7
23 -3z m20 -86 c-7 -9 -15 -13 -18 -10 -3 2 1 11 8 20 7 9 15 13 18 10 3 -2
-1 -11 -8 -20z m-50 -41 c0 -8 -4 -12 -10 -9 -5 3 -10 10 -10 16 0 5 5 9 10 9
6 0 10 -7 10 -16z m-805 -54 c-3 -5 -11 -10 -16 -10 -6 0 -7 5 -4 10 3 6 11
10 16 10 6 0 7 -4 4 -10z m905 -48 c0 -4 10 -12 22 -17 30 -14 35 -35 9 -42
-12 -3 -21 -10 -21 -15 0 -5 -10 -8 -22 -6 -24 3 -32 33 -22 71 5 16 34 25 34
9z m-929 -28 c10 -13 10 -17 -2 -25 -19 -12 -32 -11 -24 1 4 6 1 17 -5 25 -10
12 -9 15 3 15 8 0 20 -7 28 -16z m259 -22 c1 -15 2 -15 15 2 12 16 17 17 30 6
10 -8 12 -16 6 -19 -14 -9 -2 -51 15 -51 8 0 14 -4 14 -10 0 -5 8 -10 18 -10
9 0 23 -13 30 -30 11 -25 20 -30 47 -30 18 0 36 6 38 13 3 7 6 5 6 -5 1 -10 7
-18 14 -18 18 0 67 -23 67 -32 0 -4 -4 -10 -10 -13 -17 -10 -11 -37 13 -63 17
-20 18 -24 5 -19 -10 3 -20 2 -24 -4 -4 -6 -11 -6 -20 2 -22 18 -27 4 -9 -25
10 -14 13 -26 7 -26 -5 0 -16 10 -24 21 -12 18 -17 20 -35 10 -12 -6 -29 -8
-37 -5 -9 4 -22 1 -30 -5 -7 -6 -16 -8 -19 -4 -4 3 -7 -2 -7 -11 0 -12 5 -16
14 -13 9 4 14 0 14 -11 0 -9 2 -24 6 -32 5 -11 0 -16 -15 -17 -11 -1 -27 -10
-35 -20 -8 -11 -13 -13 -14 -5 0 8 -8 10 -25 6 -19 -5 -25 -2 -25 10 0 9 5 16
10 16 18 0 10 15 -15 26 -23 11 -24 10 -14 -8 10 -18 9 -18 -11 -8 -12 6 -24
19 -27 28 -9 23 -25 33 -44 26 -10 -3 -17 1 -16 8 1 36 -4 47 -23 45 -11 -1
-20 -8 -20 -16 0 -20 -6 -11 -14 22 -5 20 -3 27 9 27 11 0 15 10 15 35 0 30 3
35 24 35 13 0 26 -4 28 -9 2 -4 13 -11 25 -15 21 -7 22 -4 19 23 -2 17 1 31 6
31 11 0 -1 42 -14 51 -6 4 -5 9 2 14 7 4 16 2 21 -6 19 -31 19 3 -1 45 -11 26
-18 51 -15 56 9 14 25 2 25 -18z m-40 8 c0 -5 -4 -10 -10 -10 -5 0 -10 5 -10
10 0 6 5 10 10 10 6 0 10 -4 10 -10z m-1576 -48 c2 -4 1 -14 -4 -22 -7 -11
-12 -12 -21 -3 -6 6 -8 16 -5 22 8 13 23 14 30 3z m-504 -12 c0 -5 -4 -10 -10
-10 -5 0 -10 5 -10 10 0 6 5 10 10 10 6 0 10 -4 10 -10z m532 -22 c-7 -7 -8
-17 -1 -30 12 -22 -3 -24 -21 -3 -10 13 -9 19 5 35 10 11 21 18 23 15 3 -3 1
-10 -6 -17z m-565 -20 c-3 -8 -6 -5 -6 6 -1 11 2 17 5 13 3 -3 4 -12 1 -19z
m1660 6 c-3 -3 -12 -4 -19 -1 -8 3 -5 6 6 6 11 1 17 -2 13 -5z m455 -63 c-5
-13 -6 -13 -10 0 -3 7 -9 17 -14 20 -5 3 -6 14 -2 23 6 17 8 16 19 -5 7 -13
10 -30 7 -38z m-543 35 c13 -16 -10 -41 -31 -33 -8 4 -7 6 5 6 21 1 23 21 2
21 -8 0 -15 5 -15 10 0 15 26 12 39 -4z m1422 -19 c-1 -12 -15 -9 -19 4 -3 6
1 10 8 8 6 -3 11 -8 11 -12z m-1171 -1 c0 -3 -4 -8 -10 -11 -5 -3 -10 -1 -10
4 0 6 5 11 10 11 6 0 10 -2 10 -4z m184 -12 c4 -10 1 -14 -6 -12 -15 5 -23 28
-10 28 5 0 13 -7 16 -16z m-354 -54 c0 -5 -5 -10 -11 -10 -5 0 -7 5 -4 10 3 6
8 10 11 10 2 0 4 -4 4 -10z m230 -6 c0 -8 -5 -12 -10 -9 -6 4 -8 11 -5 16 9
14 15 11 15 -7z m12 -78 c-3 -5 -11 -1 -18 9 -10 13 -10 20 -1 30 10 10 13 9
18 -9 3 -11 4 -25 1 -30z m-254 24 c-7 -10 -14 -18 -15 -16 -6 6 9 36 18 36 5
0 4 -9 -3 -20z m149 -10 c-13 -21 -27 -26 -27 -10 0 6 5 10 10 10 6 0 10 7 10
16 0 8 4 12 10 9 6 -4 5 -13 -3 -25z m53 20 c0 -5 -4 -10 -10 -10 -5 0 -10 5
-10 10 0 6 5 10 10 10 6 0 10 -4 10 -10z m-110 -4 c0 -3 -4 -8 -10 -11 -5 -3
-10 -1 -10 4 0 6 5 11 10 11 6 0 10 -2 10 -4z m-57 -37 c-17 -17 -37 -1 -22
17 8 10 15 12 23 4 7 -7 7 -13 -1 -21z m57 1 c0 -5 -10 -10 -22 -10 -19 0 -20
2 -8 10 19 13 30 13 30 0z m-380 -9 c0 -6 -4 -13 -10 -16 -5 -3 -10 1 -10 9 0
9 5 16 10 16 6 0 10 -4 10 -9z m638 -19 c15 -10 0 -62 -17 -62 -6 0 -8 7 -4
16 4 11 1 15 -12 12 -10 -2 -20 2 -22 8 -2 7 4 11 14 10 10 0 17 5 16 12 -3
14 6 15 25 4z m342 -18 c0 -8 -4 -12 -10 -9 -5 3 -10 10 -10 16 0 5 5 9 10 9
6 0 10 -7 10 -16z m-950 -4 c0 -5 -4 -10 -10 -10 -5 0 -10 5 -10 10 0 6 5 10
10 10 6 0 10 -4 10 -10z m268 -10 c-7 -11 -16 -20 -20 -20 -5 0 -3 9 4 20 7
11 16 20 20 20 5 0 3 -9 -4 -20z m-178 -5 c0 -8 -7 -15 -15 -15 -16 0 -20 12
-8 23 11 12 23 8 23 -8z m293 -2 c-3 -7 2 -13 11 -13 21 0 21 -16 0 -24 -22
-9 -24 -8 -18 9 7 17 -11 21 -21 5 -4 -6 -12 -4 -21 5 -20 20 -11 32 25 32 20
0 28 -4 24 -14z m655 -7 c-10 -7 -18 -22 -19 -32 0 -16 -2 -16 -12 4 -12 25 2
42 33 42 12 -1 12 -3 -2 -14z m-1085 -8 c-26 -13 -30 -28 -8 -28 8 0 15 -4 15
-10 0 -5 -9 -10 -20 -10 -18 0 -24 -10 -22 -32 1 -3 -5 -9 -13 -12 -17 -6 -21
29 -5 39 6 4 8 16 4 27 -4 14 -2 18 5 14 6 -4 11 0 11 8 0 11 9 16 28 15 27 0
27 -1 5 -11z m555 3 c11 -7 10 -10 -3 -15 -19 -7 -35 0 -35 15 0 11 20 12 38
0z m-482 -26 c-8 -9 -13 -21 -10 -29 6 -17 -22 -41 -31 -26 -3 5 -1 10 5 10 7
0 10 7 6 15 -5 15 18 45 35 45 6 0 4 -7 -5 -15z m675 2 c-1 -12 -15 -9 -19 4
-3 6 1 10 8 8 6 -3 11 -8 11 -12z m-1448 -17 c5 -4 -11 -10 -35 -13 -24 -3
-47 -2 -52 4 -6 6 -4 9 7 9 9 0 17 5 17 10 0 11 49 3 63 -10z m12 -49 c19 -8
19 -8 -2 -19 -27 -15 -46 -15 -38 -2 3 6 -1 10 -10 10 -9 0 -13 5 -10 10 7 12
31 12 60 1z m705 -1 c0 -5 -7 -10 -15 -10 -8 0 -15 5 -15 10 0 6 7 10 15 10 8
0 15 -4 15 -10z m-150 -14 c0 -25 -12 -46 -26 -46 -8 0 -14 7 -14 16 0 9 5 12
12 8 8 -5 9 0 6 14 -4 15 -2 22 8 22 8 0 14 -6 14 -14z m80 -25 c0 -23 -16
-36 -25 -20 -4 5 -14 8 -24 5 -9 -4 -5 3 9 14 32 25 40 25 40 1z"/>
<path d="M3076 6111 c-4 -7 -5 -15 -2 -18 9 -9 19 4 14 18 -4 11 -6 11 -12 0z"/>
<path d="M2987 6014 c-4 -4 -7 -14 -7 -22 0 -9 3 -12 7 -9 3 4 13 1 21 -5 11
-10 13 -8 10 12 -3 24 -19 36 -31 24z"/>
<path d="M1340 5305 c0 -8 5 -15 10 -15 6 0 10 7 10 15 0 8 -4 15 -10 15 -5 0
-10 -7 -10 -15z"/>
<path d="M1290 5150 c0 -5 5 -10 11 -10 5 0 7 5 4 10 -3 6 -8 10 -11 10 -2 0
-4 -4 -4 -10z"/>
<path d="M1200 5000 c0 -5 5 -10 10 -10 6 0 10 5 10 10 0 6 -4 10 -10 10 -5 0
-10 -4 -10 -10z"/>
<path d="M1220 4953 c0 -13 5 -23 10 -23 13 0 13 11 0 30 -8 12 -10 11 -10 -7z"/>
<path d="M3170 4831 c-12 -23 -29 -98 -40 -181 -10 -66 -13 -81 -23 -97 -4 -7
-11 -36 -14 -65 -3 -29 -10 -58 -14 -64 -5 -6 -8 -28 -8 -50 0 -21 -2 -73 -5
-114 -6 -71 -5 -73 9 -45 l14 30 1 -28 c0 -20 6 -30 19 -34 11 -3 30 -25 43
-49 12 -24 26 -44 30 -44 5 0 8 -11 8 -25 0 -35 -59 -121 -97 -142 -28 -15
-33 -23 -33 -55 0 -44 -17 -51 -22 -10 -3 19 -6 9 -12 -30 -7 -52 -11 -58 -32
-58 -21 0 -23 -4 -18 -25 4 -16 0 -32 -14 -49 -10 -14 -22 -23 -25 -20 -3 3
-4 -6 -3 -19 0 -14 4 -23 7 -21 8 4 20 -38 14 -44 -3 -3 -11 1 -20 8 -8 7 -15
8 -15 2 0 -18 26 -31 48 -25 18 4 22 1 22 -17 0 -12 7 -28 15 -37 18 -17 15
-49 -3 -45 -7 1 -14 -3 -16 -10 -16 -53 -15 -52 -36 -33 -22 20 -37 13 -51
-22 -7 -19 -6 -32 6 -49 9 -14 11 -25 5 -29 -15 -9 -12 -61 4 -75 8 -6 12 -18
9 -26 -3 -8 0 -14 6 -14 6 0 11 -8 11 -17 0 -15 -2 -14 -14 3 -23 30 -27 12
-10 -39 14 -42 34 -63 34 -37 0 14 19 12 33 -2 20 -21 41 -68 34 -74 -4 -4
-14 -1 -23 7 -15 12 -16 8 -9 -59 5 -52 4 -77 -5 -87 -7 -9 -10 -19 -6 -22 4
-4 11 -2 15 6 6 8 10 2 15 -19 3 -18 3 -36 0 -42 -3 -5 2 -18 11 -28 10 -11
15 -28 12 -40 -3 -11 -1 -23 4 -26 5 -3 7 -9 4 -14 -3 -5 -1 -11 4 -14 13 -8
7 -122 -7 -139 -11 -12 -11 -24 -1 -59 7 -24 13 -92 14 -153 1 -60 4 -135 8
-165 5 -37 4 -48 -2 -35 -5 11 -10 37 -10 58 -1 20 -6 37 -12 37 -7 0 -9 -10
-7 -25 4 -19 1 -25 -11 -23 -13 2 -16 -7 -18 -42 0 -25 -3 -61 -5 -80 -2 -19
-1 -48 3 -65 6 -26 7 -24 8 17 1 50 21 79 21 31 l1 -28 14 25 c8 14 14 35 15
48 0 13 4 20 10 17 6 -3 10 -19 10 -35 0 -16 5 -32 10 -35 6 -3 10 -21 9 -38
0 -27 -2 -29 -9 -12 -7 17 -9 16 -9 -11 -1 -16 -5 -34 -11 -40 -5 -5 -7 -20
-3 -33 6 -22 7 -22 20 10 13 30 15 32 24 16 6 -9 13 -50 16 -90 3 -39 10 -80
14 -89 6 -10 5 -18 -2 -20 -8 -3 -9 -10 -2 -23 6 -11 19 -47 29 -80 20 -65 44
-82 64 -45 6 11 20 58 31 103 11 45 23 97 28 114 5 18 7 41 4 52 -3 10 0 22 6
25 6 4 11 35 11 69 1 59 31 213 40 203 3 -2 3 16 1 40 -2 26 2 51 10 60 7 8
12 33 11 54 -2 40 13 55 21 23 3 -10 5 1 6 25 0 24 -3 41 -8 38 -5 -3 -9 10
-8 29 1 21 6 35 14 35 8 0 11 9 9 23 -3 12 -5 30 -5 40 -1 9 -7 16 -13 15 -8
-2 -11 5 -8 17 2 11 3 45 1 75 -8 172 -5 304 6 307 7 3 9 11 6 19 -4 12 0 14
19 9 24 -6 25 -4 24 33 0 26 -5 38 -12 35 -7 -2 -12 6 -13 19 -1 13 -3 61 -5
108 -2 47 -4 93 -5 103 0 9 -6 17 -12 17 -5 0 -9 -13 -7 -30 2 -16 -1 -28 -7
-27 -13 3 -13 112 0 155 5 17 15 32 21 32 18 0 16 67 -2 74 -9 3 -19 4 -24 1
-4 -3 -6 4 -3 15 3 11 0 41 -6 67 -8 28 -8 48 -3 52 6 4 7 28 2 61 -18 125
-19 170 -4 170 8 0 14 10 14 25 0 31 -8 32 -19 3 -16 -44 -24 85 -8 134 12 37
12 62 0 178 -8 77 -20 144 -28 157 -10 15 -14 47 -13 100 1 100 -10 183 -26
183 -8 0 -12 17 -13 48 -1 49 -38 143 -60 150 -6 2 -17 -6 -23 -17z m70 -91
c0 -5 -4 -10 -10 -10 -5 0 -10 5 -10 10 0 6 5 10 10 10 6 0 10 -4 10 -10z m73
-453 c3 -8 1 -20 -4 -28 -6 -10 -9 -7 -9 14 0 29 5 35 13 14z m-329 -959 c-3
-4 -9 -8 -15 -8 -5 0 -9 4 -9 8 0 5 7 9 15 9 8 0 12 -4 9 -9z m353 -770 c-3
-8 -6 -5 -6 6 -1 11 2 17 5 13 3 -3 4 -12 1 -19z"/>
<path d="M2645 4771 c5 -18 2 -24 -14 -28 -22 -6 -25 -16 -11 -48 8 -19 9 -19
9 -1 1 15 4 16 15 7 8 -7 17 -8 20 -3 8 13 -5 81 -16 88 -6 4 -7 -2 -3 -15z"/>
<path d="M2590 4764 c0 -9 5 -14 12 -12 18 6 21 28 4 28 -9 0 -16 -7 -16 -16z"/>
<path d="M2560 4729 c0 -4 7 -20 15 -35 8 -16 15 -22 15 -13 0 14 -29 61 -30
48z"/>
<path d="M2687 4660 c-3 -11 -1 -20 4 -20 5 0 9 9 9 20 0 11 -2 20 -4 20 -2 0
-6 -9 -9 -20z"/>
<path d="M2634 4655 c-11 -27 2 -37 14 -11 7 16 8 26 1 26 -5 0 -12 -7 -15
-15z"/>
<path d="M2720 4625 c0 -8 7 -15 15 -15 9 0 12 6 9 15 -4 8 -10 15 -15 15 -5
0 -9 -7 -9 -15z"/>
<path d="M3412 4629 c2 -7 10 -15 17 -17 8 -3 12 1 9 9 -2 7 -10 15 -17 17 -8
3 -12 -1 -9 -9z"/>
<path d="M2672 4618 c-19 -19 -14 -29 8 -16 20 13 27 28 12 28 -4 0 -13 -5
-20 -12z"/>
<path d="M2340 4551 c0 -5 7 -11 14 -14 10 -4 13 -1 9 9 -6 15 -23 19 -23 5z"/>
<path d="M3471 4534 c0 -11 3 -14 6 -6 3 7 2 16 -1 19 -3 4 -6 -2 -5 -13z"/>
<path d="M2390 4515 c0 -3 7 -14 16 -23 15 -14 16 -14 13 3 -4 17 -29 35 -29
20z"/>
<path d="M2525 4500 c3 -5 10 -10 16 -10 5 0 9 5 9 10 0 6 -7 10 -16 10 -8 0
-12 -4 -9 -10z"/>
<path d="M2525 4428 c4 -66 4 -68 14 -68 14 0 19 73 7 93 -18 28 -24 20 -21
-25z"/>
<path d="M2720 4439 c0 -5 5 -7 10 -4 6 3 10 8 10 11 0 2 -4 4 -10 4 -5 0 -10
-5 -10 -11z"/>
<path d="M2630 4370 c0 -5 7 -10 16 -10 8 0 12 5 9 10 -3 6 -10 10 -16 10 -5
0 -9 -4 -9 -10z"/>
<path d="M2840 4338 c0 -9 5 -20 10 -23 13 -8 13 5 0 25 -8 13 -10 13 -10 -2z"/>
<path d="M2720 4323 c0 -12 -6 -24 -12 -26 -10 -4 -10 -6 0 -6 6 -1 12 -11 12
-23 0 -21 0 -21 15 -2 18 24 19 36 0 60 -14 19 -14 19 -15 -3z"/>
<path d="M2840 4274 c0 -8 5 -12 10 -9 6 3 10 10 10 16 0 5 -4 9 -10 9 -5 0
-10 -7 -10 -16z"/>
<path d="M2877 4283 c-4 -3 -7 -13 -7 -22 1 -13 3 -13 11 2 11 19 8 33 -4 20z"/>
<path d="M2786 4263 c-8 -19 7 -38 22 -29 11 7 4 46 -8 46 -4 0 -11 -8 -14
-17z"/>
<path d="M3550 4265 c0 -8 5 -15 10 -15 6 0 10 7 10 15 0 8 -4 15 -10 15 -5 0
-10 -7 -10 -15z"/>
<path d="M2824 4170 c6 -56 16 -63 16 -12 0 22 -5 44 -11 47 -7 5 -9 -7 -5
-35z"/>
<path d="M2625 4089 c-4 -6 -5 -12 -2 -15 2 -3 7 2 10 11 7 17 1 20 -8 4z"/>
<path d="M2655 4080 c3 -5 8 -10 11 -10 2 0 4 5 4 10 0 6 -5 10 -11 10 -5 0
-7 -4 -4 -10z"/>
<path d="M2527 4054 c-8 -8 1 -24 14 -24 5 0 9 7 9 15 0 15 -12 20 -23 9z"/>
<path d="M2670 4050 c0 -5 5 -10 10 -10 6 0 10 5 10 10 0 6 -4 10 -10 10 -5 0
-10 -4 -10 -10z"/>
<path d="M2323 4004 c-3 -10 4 -26 20 -42 32 -31 48 -23 18 9 -12 13 -19 29
-17 36 3 7 1 13 -5 13 -5 0 -12 -7 -16 -16z"/>
<path d="M2755 4010 c-3 -5 1 -10 10 -10 9 0 13 5 10 10 -3 6 -8 10 -10 10 -2
0 -7 -4 -10 -10z"/>
<path d="M3610 3960 c0 -19 3 -21 12 -12 9 9 9 15 0 24 -9 9 -12 7 -12 -12z"/>
<path d="M2801 3914 c0 -11 3 -14 6 -6 3 7 2 16 -1 19 -3 4 -6 -2 -5 -13z"/>
<path d="M2355 3890 c-18 -8 -17 -9 8 -9 16 -1 26 3 22 9 -3 6 -7 10 -8 9 -1
0 -11 -4 -22 -9z"/>
<path d="M2765 3891 c-3 -5 -1 -12 5 -16 5 -3 10 1 10 9 0 18 -6 21 -15 7z"/>
<path d="M2295 3810 c3 -5 8 -10 11 -10 2 0 4 5 4 10 0 6 -5 10 -11 10 -5 0
-7 -4 -4 -10z"/>
<path d="M2480 3806 c0 -9 5 -16 10 -16 6 0 10 4 10 9 0 6 -4 13 -10 16 -5 3
-10 -1 -10 -9z"/>
<path d="M3695 3560 c3 -5 11 -10 16 -10 6 0 7 5 4 10 -3 6 -11 10 -16 10 -6
0 -7 -4 -4 -10z"/>
<path d="M3720 3514 c0 -8 5 -12 10 -9 6 3 10 10 10 16 0 5 -4 9 -10 9 -5 0
-10 -7 -10 -16z"/>
<path d="M2975 3500 c-3 -5 3 -10 14 -10 12 0 21 5 21 10 0 6 -6 10 -14 10 -8
0 -18 -4 -21 -10z"/>
<path d="M2910 3491 c0 -6 5 -13 10 -16 6 -3 10 1 10 9 0 9 -4 16 -10 16 -5 0
-10 -4 -10 -9z"/>
<path d="M3425 3160 c-3 -5 -1 -10 4 -10 6 0 11 5 11 10 0 6 -2 10 -4 10 -3 0
-8 -4 -11 -10z"/>
<path d="M3595 3080 c3 -5 8 -10 11 -10 2 0 4 5 4 10 0 6 -5 10 -11 10 -5 0
-7 -4 -4 -10z"/>
<path d="M2945 2989 c-4 -6 -5 -13 -2 -16 7 -7 27 6 27 18 0 12 -17 12 -25 -2z"/>
<path d="M2995 2640 c3 -5 8 -10 11 -10 2 0 4 5 4 10 0 6 -5 10 -11 10 -5 0
-7 -4 -4 -10z"/>
<path d="M3005 2359 c-4 -6 -5 -13 -2 -16 7 -7 27 6 27 18 0 12 -17 12 -25 -2z"/>
<path d="M3461 2328 c0 -27 3 -48 8 -48 14 0 22 31 12 44 -5 6 -11 20 -14 31
-2 11 -5 -1 -6 -27z"/>
<path d="M3165 1540 c3 -5 8 -10 11 -10 2 0 4 5 4 10 0 6 -5 10 -11 10 -5 0
-7 -4 -4 -10z"/>
<path d="M4030 678 c0 -9 5 -20 10 -23 13 -8 13 5 0 25 -8 13 -10 13 -10 -2z"/>
<path d="M5064 5393 c-24 -4 -23 -31 2 -67 13 -18 14 -18 20 -2 4 11 1 21 -7
27 -11 6 -11 11 -1 21 9 9 12 9 12 -2 0 -10 3 -11 11 -3 11 11 4 34 -9 32 -4
-1 -17 -4 -28 -6z"/>
<path d="M4890 5343 c0 -5 4 -14 9 -21 7 -11 9 -11 14 1 3 8 3 18 0 21 -9 8
-23 7 -23 -1z"/>
<path d="M5127 5167 c-4 -14 23 -47 40 -47 10 0 10 6 1 24 -12 28 -35 41 -41
23z"/>
<path d="M5335 5100 c3 -5 8 -10 11 -10 2 0 4 5 4 10 0 6 -5 10 -11 10 -5 0
-7 -4 -4 -10z"/>
<path d="M5460 5099 c0 -9 7 -22 15 -29 19 -16 19 0 0 26 -12 16 -14 16 -15 3z"/>
<path d="M5701 5094 c0 -11 3 -14 6 -6 3 7 2 16 -1 19 -3 4 -6 -2 -5 -13z"/>
<path d="M5350 5072 c0 -12 19 -26 26 -19 2 2 -2 10 -11 17 -9 8 -15 8 -15 2z"/>
<path d="M5430 5069 c0 -6 -9 -8 -20 -4 -21 7 -28 -9 -8 -21 8 -5 6 -10 -5
-19 -9 -6 -18 -24 -21 -41 -4 -16 -3 -23 0 -16 5 10 9 10 21 0 8 -6 27 -12 41
-13 19 0 27 -7 33 -29 5 -17 4 -37 -2 -49 -8 -14 -8 -18 1 -12 14 8 41 -25 35
-42 -2 -7 0 -13 6 -13 7 0 9 10 5 26 -6 21 -4 25 8 21 17 -7 40 25 28 38 -4 4
0 6 8 3 8 -3 14 -16 14 -29 -1 -24 14 -42 28 -33 4 3 2 14 -4 24 -16 25 -5 35
22 20 20 -11 21 -10 15 9 -5 15 -2 21 9 21 9 0 16 5 16 11 0 6 -8 8 -19 4 -13
-4 -20 0 -24 15 -3 11 -1 18 4 15 5 -3 18 -1 29 5 15 8 20 8 22 -2 0 -7 2 -17
3 -23 2 -5 3 -15 4 -22 0 -6 10 -9 21 -6 11 3 19 12 18 21 -2 9 8 22 22 29
l25 13 -32 0 c-33 0 -48 20 -15 20 15 1 15 2 -3 16 -17 13 -18 16 -5 24 22 14
31 12 46 -7 22 -32 24 -9 1 27 -17 26 -23 30 -25 17 -2 -9 -12 -17 -23 -17
-11 0 -24 -10 -29 -22 l-9 -23 -7 23 c-7 25 -14 27 -33 10 -11 -11 -12 -8 -7
15 l7 28 -22 -22 c-20 -20 -21 -23 -5 -34 14 -11 14 -14 2 -24 -11 -10 -16 -8
-21 8 -4 14 -15 21 -30 21 -13 0 -27 5 -30 10 -3 6 -16 10 -28 9 -12 0 -16 -3
-9 -6 20 -8 14 -23 -13 -33 -14 -5 -25 -14 -25 -19 0 -5 -11 -11 -25 -13 -17
-4 -25 -1 -25 8 0 8 7 14 16 14 8 0 22 6 30 14 19 20 18 66 -1 66 -8 0 -15 -5
-15 -11z"/>
<path d="M5595 5070 c3 -5 8 -10 11 -10 2 0 4 5 4 10 0 6 -5 10 -11 10 -5 0
-7 -4 -4 -10z"/>
<path d="M5251 5044 c0 -11 3 -14 6 -6 3 7 2 16 -1 19 -3 4 -6 -2 -5 -13z"/>
<path d="M5288 5051 c18 -11 43 -61 36 -72 -3 -5 4 -9 15 -9 23 0 28 19 10 37
-6 6 -12 18 -13 28 -2 12 -13 19 -32 21 -18 2 -24 0 -16 -5z"/>
<path d="M5220 5000 c0 -5 5 -10 10 -10 6 0 10 5 10 10 0 6 -4 10 -10 10 -5 0
-10 -4 -10 -10z"/>
<path d="M5790 4980 c0 -5 5 -10 11 -10 5 0 7 5 4 10 -3 6 -8 10 -11 10 -2 0
-4 -4 -4 -10z"/>
<path d="M5264 4919 c-3 -5 3 -12 13 -16 10 -4 21 -11 24 -16 4 -5 8 2 11 15
3 18 0 23 -19 24 -13 1 -26 -2 -29 -7z"/>
<path d="M5390 4851 c0 -5 7 -12 16 -15 24 -9 28 -7 14 9 -14 17 -30 20 -30 6z"/>
<path d="M5460 4830 c0 -5 5 -10 10 -10 6 0 10 5 10 10 0 6 -4 10 -10 10 -5 0
-10 -4 -10 -10z"/>
<path d="M5625 4830 c3 -5 11 -10 16 -10 6 0 7 5 4 10 -3 6 -11 10 -16 10 -6
0 -7 -4 -4 -10z"/>
<path d="M5880 4809 c0 -5 5 -7 10 -4 6 3 10 8 10 11 0 2 -4 4 -10 4 -5 0 -10
-5 -10 -11z"/>
<path d="M715 4800 c3 -5 -1 -12 -9 -17 -18 -10 -101 -177 -149 -298 -49 -126
-103 -300 -132 -430 -26 -114 -22 -144 13 -112 10 9 31 17 46 17 18 0 29 7 36
23 5 12 9 18 9 13 1 -5 10 3 22 18 11 14 17 30 14 36 -3 5 -1 10 4 10 6 0 11
-5 11 -11 0 -5 5 -7 10 -4 6 4 8 11 5 16 -4 5 1 12 10 16 10 3 21 0 25 -8 14
-21 47 15 45 49 -3 39 -4 42 -16 42 -6 0 -9 -7 -5 -15 3 -9 0 -15 -9 -15 -18
0 -28 17 -15 25 6 4 8 15 5 25 -3 9 -1 28 4 42 6 15 5 31 -1 42 -8 14 -7 21 3
27 11 7 12 11 1 17 -9 6 -10 16 -3 34 11 29 30 39 60 31 16 -4 21 -1 21 15 0
11 -6 23 -12 25 -7 3 -3 6 10 6 14 1 27 10 33 25 6 13 21 27 32 30 16 4 18 8
9 19 -11 13 -10 47 3 67 3 6 1 10 -5 10 -6 0 -8 5 -5 10 3 6 2 10 -2 10 -5 0
-7 21 -5 48 2 26 5 55 5 65 1 9 4 17 7 17 3 0 5 12 5 26 -1 20 -11 30 -44 45
-23 10 -39 14 -36 9z m-265 -814 c0 -2 -8 -10 -17 -17 -16 -13 -17 -12 -4 4
13 16 21 21 21 13z"/>
<path d="M810 4800 c0 -5 5 -10 11 -10 5 0 7 5 4 10 -3 6 -8 10 -11 10 -2 0
-4 -4 -4 -10z"/>
<path d="M5847 4793 c3 -7 6 -13 8 -13 2 0 5 6 8 13 3 8 -1 14 -8 14 -7 0 -11
-6 -8 -14z"/>
<path d="M5475 4760 c-3 -5 -1 -10 4 -10 6 0 11 5 11 10 0 6 -2 10 -4 10 -3 0
-8 -4 -11 -10z"/>
<path d="M5905 4720 c3 -5 8 -10 11 -10 2 0 4 5 4 10 0 6 -5 10 -11 10 -5 0
-7 -4 -4 -10z"/>
<path d="M5890 4660 c0 -11 5 -20 10 -20 6 0 10 9 10 20 0 11 -4 20 -10 20 -5
0 -10 -9 -10 -20z"/>
<path d="M5930 4675 c-8 -52 -7 -56 19 -53 32 4 43 38 13 38 -11 0 -23 6 -25
13 -3 6 -6 8 -7 2z"/>
<path d="M5860 4630 c0 -5 5 -10 11 -10 5 0 7 5 4 10 -3 6 -8 10 -11 10 -2 0
-4 -4 -4 -10z"/>
<path d="M890 4538 c0 -32 13 -56 26 -51 17 6 19 33 3 33 -6 0 -9 7 -5 15 3 9
0 15 -9 15 -8 0 -15 -6 -15 -12z"/>
<path d="M5620 4529 c0 -6 -6 -9 -13 -6 -15 6 -63 -30 -53 -40 3 -4 19 -2 34
3 22 8 30 6 47 -11 11 -11 19 -25 17 -31 -1 -6 5 -17 13 -24 9 -7 15 -8 15 -2
0 6 -6 13 -12 15 -10 4 -10 8 2 16 8 5 17 8 21 5 4 -2 10 0 14 6 3 5 0 10 -8
10 -8 0 -22 10 -33 22 -19 21 -19 21 5 15 29 -7 17 5 -21 21 -20 8 -28 8 -28
1z"/>
<path d="M5740 4460 c0 -5 5 -10 10 -10 6 0 10 5 10 10 0 6 -4 10 -10 10 -5 0
-10 -4 -10 -10z"/>
<path d="M5600 4450 c0 -5 5 -10 10 -10 6 0 10 5 10 10 0 6 -4 10 -10 10 -5 0
-10 -4 -10 -10z"/>
<path d="M5682 4406 c-9 -19 -8 -27 4 -36 11 -10 14 -9 14 8 0 11 3 27 6 36
10 26 -12 18 -24 -8z"/>
<path d="M5730 4410 c0 -13 18 -22 24 -11 3 5 -1 11 -9 15 -8 3 -15 1 -15 -4z"/>
<path d="M5846 4394 c-4 -11 20 -34 38 -34 7 0 36 30 36 38 0 14 -68 11 -74
-4z"/>
<path d="M970 4386 c0 -19 19 -31 31 -19 5 5 0 14 -11 21 -17 10 -20 10 -20
-2z"/>
<path d="M5814 4355 c6 -18 -16 -20 -45 -5 -15 9 -19 7 -19 -6 0 -10 -6 -14
-14 -11 -9 4 -16 -5 -20 -26 -5 -24 -9 -28 -19 -18 -9 9 -9 14 3 21 10 6 11
12 5 19 -7 6 -17 4 -30 -5 -20 -15 -19 -16 13 -42 18 -15 32 -32 32 -37 0 -15
39 -37 51 -29 6 3 17 -2 25 -12 13 -15 15 -16 11 -3 -4 12 1 17 19 18 47 3 54
4 54 13 0 4 14 8 30 8 17 0 30 4 30 10 0 5 -6 7 -14 4 -19 -7 -16 47 4 72 10
12 11 15 2 10 -16 -9 -102 12 -102 25 0 5 -5 9 -11 9 -6 0 -9 -7 -5 -15z"/>
<path d="M740 4351 c0 -7 -4 -9 -10 -6 -5 3 -10 1 -10 -4 0 -6 4 -11 9 -11 13
0 25 20 17 27 -3 4 -6 1 -6 -6z"/>
<path d="M706 4194 c-10 -25 -7 -46 5 -42 14 5 22 58 9 58 -4 0 -11 -7 -14
-16z"/>
<path d="M795 4185 c-3 -8 -7 -22 -10 -31 -4 -11 0 -14 14 -9 23 7 38 -23 16
-31 -21 -9 -19 -24 4 -24 36 0 43 24 19 69 -23 43 -36 51 -43 26z"/>
<path d="M837 4050 c3 -11 9 -20 14 -20 11 0 11 3 3 24 -9 23 -23 20 -17 -4z"/>
<path d="M656 4035 c4 -8 10 -15 15 -15 5 0 9 7 9 15 0 8 -7 15 -15 15 -9 0
-12 -6 -9 -15z"/>
<path d="M710 4020 c0 -5 5 -10 10 -10 6 0 10 5 10 10 0 6 -4 10 -10 10 -5 0
-10 -4 -10 -10z"/>
<path d="M806 3993 c-3 -4 -6 -14 -6 -23 0 -13 -7 -16 -31 -12 -22 3 -30 1
-25 -7 4 -6 13 -11 21 -11 7 0 15 -7 19 -15 9 -25 26 -17 33 15 3 17 9 30 14
30 5 0 9 4 9 9 0 11 -26 22 -34 14z"/>
<path d="M850 3950 c0 -5 5 -10 11 -10 5 0 7 5 4 10 -3 6 -8 10 -11 10 -2 0
-4 -4 -4 -10z"/>
<path d="M6090 3953 c0 -7 43 -42 53 -43 18 0 4 20 -23 34 -16 8 -30 12 -30 9z"/>
<path d="M6160 3945 c0 -8 5 -15 10 -15 6 0 10 4 10 9 0 5 8 12 18 14 10 3 6
5 -10 6 -19 1 -28 -4 -28 -14z"/>
<path d="M6199 3916 c6 -7 9 -20 6 -28 -3 -7 1 -22 9 -33 15 -20 15 -20 11 0
-12 63 -16 75 -26 75 -8 0 -8 -4 0 -14z"/>
<path d="M6168 3893 c7 -3 16 -2 19 1 4 3 -2 6 -13 5 -11 0 -14 -3 -6 -6z"/>
<path d="M740 3835 c0 -8 5 -15 10 -15 6 0 10 7 10 15 0 8 -4 15 -10 15 -5 0
-10 -7 -10 -15z"/>
<path d="M5645 3820 c-3 -6 1 -7 9 -4 18 7 21 14 7 14 -6 0 -13 -4 -16 -10z"/>
<path d="M6180 3765 c-14 -8 -35 -14 -48 -15 -13 0 -20 -4 -17 -10 4 -6 13 -9
20 -8 8 2 14 -1 14 -7 0 -5 -11 -9 -25 -8 -28 2 -31 -5 -6 -23 15 -12 15 -13
1 -14 -10 0 -19 -11 -22 -27 -7 -36 -5 -37 23 -13 28 24 36 24 74 5 37 -19 39
-19 33 5 -3 14 0 20 10 20 12 0 14 7 9 31 -3 17 -6 40 -6 51 0 15 -5 18 -21
13 -15 -5 -19 -4 -15 4 9 14 7 14 -24 -4z"/>
<path d="M901 3746 c12 -10 59 -15 59 -6 0 5 -14 10 -32 10 -17 0 -29 -2 -27
-4z"/>
<path d="M730 3711 c0 -6 -11 -11 -25 -11 -14 0 -25 -4 -25 -9 0 -13 28 -22
35 -10 4 5 10 7 14 5 4 -3 13 -1 19 3 10 6 9 11 -3 21 -10 8 -15 9 -15 1z"/>
<path d="M700 3630 c0 -5 5 -10 11 -10 5 0 7 5 4 10 -3 6 -8 10 -11 10 -2 0
-4 -4 -4 -10z"/>
<path d="M620 3620 c0 -5 7 -7 15 -4 8 4 15 8 15 10 0 2 -7 4 -15 4 -8 0 -15
-4 -15 -10z"/>
<path d="M723 3454 c0 -16 13 -19 21 -5 3 5 0 11 -7 14 -8 3 -14 -1 -14 -9z"/>
<path d="M6200 3390 c0 -5 6 -10 13 -10 8 0 8 -3 -2 -9 -8 -5 -19 -7 -26 -5
-6 3 -17 -1 -23 -8 -8 -10 -3 -13 21 -15 18 -1 42 -5 55 -8 30 -7 40 20 17 45
-19 21 -55 27 -55 10z"/>
<path d="M450 3110 c0 -5 5 -10 11 -10 5 0 7 5 4 10 -3 6 -8 10 -11 10 -2 0
-4 -4 -4 -10z"/>
<path d="M419 3033 c1 -24 7 -40 12 -37 5 3 9 0 9 -5 0 -6 9 -11 20 -11 11 0
20 7 20 15 0 8 5 15 10 15 6 0 10 5 10 10 0 6 -9 10 -21 10 -11 0 -27 7 -35
15 -9 8 -11 15 -5 15 6 0 11 4 11 9 0 6 -8 9 -17 8 -15 -1 -17 -9 -14 -44z"/>
<path d="M6120 3061 c0 -11 49 -21 55 -11 5 9 -18 20 -41 20 -8 0 -14 -4 -14
-9z"/>
<path d="M6230 3035 c0 -13 -4 -14 -21 -5 -24 13 -23 14 -36 -26 -10 -29 -10
-30 18 -26 30 4 37 -6 17 -26 -6 -6 -9 -15 -5 -18 3 -4 13 1 22 9 19 20 33
107 16 107 -6 0 -11 -7 -11 -15z"/>
<path d="M370 3011 c0 -6 5 -13 10 -16 6 -3 10 1 10 9 0 9 -4 16 -10 16 -5 0
-10 -4 -10 -9z"/>
<path d="M6157 2953 c-3 -5 -2 -15 2 -22 5 -7 11 -9 14 -4 3 5 2 15 -2 22 -5
7 -11 9 -14 4z"/>
<path d="M736 2895 c-3 -8 -1 -15 4 -15 6 0 10 7 10 15 0 8 -2 15 -4 15 -2 0
-6 -7 -10 -15z"/>
<path d="M6206 2843 c-3 -10 -9 -24 -12 -30 -3 -7 1 -13 9 -13 9 0 17 12 19
30 5 33 -6 41 -16 13z"/>
<path d="M6187 2746 c-10 -14 -13 -26 -8 -26 13 0 33 28 29 41 -2 6 -12 0 -21
-15z"/>
<path d="M805 2731 c-3 -6 -5 -11 -3 -12 29 -6 58 -6 58 2 0 5 -4 9 -9 9 -5 0
-16 3 -24 6 -8 3 -18 1 -22 -5z"/>
<path d="M6181 2701 c-8 -6 -9 -11 -3 -15 6 -3 14 -1 17 5 9 14 2 20 -14 10z"/>
<path d="M736 2685 c-3 -9 0 -15 9 -15 16 0 20 16 6 24 -5 3 -11 -1 -15 -9z"/>
<path d="M625 2660 c-3 -5 -2 -10 4 -10 5 0 13 5 16 10 3 6 2 10 -4 10 -5 0
-13 -4 -16 -10z"/>
<path d="M850 2600 c0 -5 5 -10 10 -10 6 0 10 5 10 10 0 6 -4 10 -10 10 -5 0
-10 -4 -10 -10z"/>
<path d="M791 2539 c5 -11 14 -17 20 -14 15 10 10 22 -11 28 -17 4 -18 2 -9
-14z"/>
<path d="M5540 2340 c0 -5 5 -10 11 -10 5 0 7 5 4 10 -3 6 -8 10 -11 10 -2 0
-4 -4 -4 -10z"/>
<path d="M5576 2302 c-3 -5 1 -15 9 -22 16 -14 20 -3 6 19 -5 8 -11 9 -15 3z"/>
<path d="M5560 2260 c0 -5 5 -10 11 -10 5 0 7 5 4 10 -3 6 -8 10 -11 10 -2 0
-4 -4 -4 -10z"/>
<path d="M767 2176 c-12 -10 -15 -16 -7 -21 17 -10 62 4 57 18 -5 17 -29 19
-50 3z"/>
<path d="M4850 1314 c0 -8 5 -12 10 -9 6 4 8 11 5 16 -9 14 -15 11 -15 -7z"/>
<path d="M4773 1154 c4 -4 2 -13 -4 -20 -7 -8 -7 -14 1 -19 6 -3 8 -11 5 -16
-4 -5 -2 -9 4 -9 5 0 13 5 16 10 10 17 25 11 18 -7 -6 -16 -4 -16 16 2 21 18
21 20 5 32 -12 9 -14 13 -4 13 25 0 0 13 -32 17 -17 2 -29 0 -25 -3z"/>
<path d="M5125 1020 c3 -5 8 -10 11 -10 2 0 4 5 4 10 0 6 -5 10 -11 10 -5 0
-7 -4 -4 -10z"/>
<path d="M5089 966 c-3 -33 -1 -42 7 -35 13 11 16 79 4 79 -4 0 -10 -20 -11
-44z"/>
<path d="M5015 980 c-19 -8 -19 -9 3 -9 12 -1 22 4 22 9 0 6 -1 10 -2 9 -2 0
-12 -4 -23 -9z"/>
<path d="M5131 974 c0 -11 3 -14 6 -6 3 7 2 16 -1 19 -3 4 -6 -2 -5 -13z"/>
<path d="M2377 763 c-4 -3 -7 -11 -7 -17 0 -6 5 -5 12 2 6 6 9 14 7 17 -3 3
-9 2 -12 -2z"/>
<path d="M2345 730 c-3 -5 -1 -10 4 -10 6 0 11 5 11 10 0 6 -2 10 -4 10 -3 0
-8 -4 -11 -10z"/>
</g>
</svg>
